<svg width="164" height="164" viewBox="0 0 164 164" fill="none" xmlns="http://www.w3.org/2000/svg">
<g filter="url(#filter0_d_1137_3130)">
<path d="M79.9276 51.3958C62.9439 52.5979 50.2146 67.2697 51.417 84.2572C52.6194 101.245 67.2884 113.977 84.2721 112.775C101.256 111.573 113.985 96.9013 112.783 79.9137C111.58 62.9262 96.9113 50.1937 79.9276 51.3958ZM83.5121 102.038C72.5368 102.815 62.9309 94.5019 62.152 83.4974C61.3731 72.4929 69.6856 62.9119 80.6876 62.1332C91.6897 61.3545 101.269 69.6691 102.048 80.6736C102.827 91.6781 94.4874 101.261 83.5121 102.038ZM118.933 47.3733C119.215 51.3531 116.236 54.7584 112.283 55.0381C108.304 55.3197 104.9 52.3395 104.62 48.3864C104.34 44.4333 107.318 41.0013 111.27 40.7216C115.222 40.4418 118.654 43.4202 118.933 47.3733ZM139.769 53.2C138.637 43.6433 135.846 35.3045 128.327 28.8036C120.836 22.3008 112.189 20.7117 102.568 20.9094C92.6477 21.0479 63.033 23.144 53.1922 24.4043C43.6643 25.535 35.3275 28.3263 28.7997 35.8214C22.2719 43.3165 20.71 51.9633 20.9081 61.5862C21.0468 71.5086 23.1434 101.13 24.4037 110.973C25.5364 120.53 28.3273 128.868 35.8457 135.369C43.3642 141.87 51.9844 143.461 61.6051 143.263C71.5253 143.125 101.14 141.029 110.981 139.769C120.535 138.636 128.872 135.845 135.371 128.325C141.873 120.832 143.461 112.183 143.263 102.56C143.124 92.6376 141.03 63.043 139.769 53.2ZM131.249 114.067C129.537 119.45 125.79 123.768 120.679 126.251C113.022 129.934 94.2783 130.535 85.5728 131.152C76.8673 131.768 58.197 133.787 50.1267 131.245C44.7452 129.532 40.4275 125.784 37.9454 120.671C34.2634 113.013 33.661 94.2651 33.0447 85.5577C32.4283 76.8502 30.4088 58.1757 32.9506 50.1037C34.663 44.7212 38.4098 40.4025 43.5211 37.9201C51.1776 34.2375 69.9214 33.6355 78.6269 33.0194C87.3324 32.4032 106.003 30.3838 114.073 32.9264C119.454 34.6393 123.772 38.3871 126.254 43.4996C129.936 51.1579 130.539 69.9059 131.155 78.6133C131.771 87.3208 133.818 105.993 131.249 114.067Z" fill="url(#paint0_linear_1137_3130)"/>
</g>
<defs>
<filter id="filter0_d_1137_3130" x="0.89209" y="0.893555" width="162.387" height="162.386" filterUnits="userSpaceOnUse" color-interpolation-filters="sRGB">
<feFlood flood-opacity="0" result="BackgroundImageFix"/>
<feColorMatrix in="SourceAlpha" type="matrix" values="0 0 0 0 0 0 0 0 0 0 0 0 0 0 0 0 0 0 127 0" result="hardAlpha"/>
<feOffset/>
<feGaussianBlur stdDeviation="10"/>
<feComposite in2="hardAlpha" operator="out"/>
<feColorMatrix type="matrix" values="0 0 0 0 1 0 0 0 0 1 0 0 0 0 1 0 0 0 0.5 0"/>
<feBlend mode="normal" in2="BackgroundImageFix" result="effect1_dropShadow_1137_3130"/>
<feBlend mode="normal" in="SourceGraphic" in2="effect1_dropShadow_1137_3130" result="shape"/>
</filter>
<linearGradient id="paint0_linear_1137_3130" x1="26.4725" y1="146.173" x2="181.072" y2="-12.5962" gradientUnits="userSpaceOnUse">
<stop stop-color="#EAA4FF"/>
<stop offset="1" stop-color="white"/>
</linearGradient>
</defs>
</svg>
