<svg width="117" height="87" viewBox="0 0 117 87" fill="none" xmlns="http://www.w3.org/2000/svg">
<g clip-path="url(#clip0_1671_1594)">
<path d="M5.13574 39.3375L15.4071 58.0978L36.3784 58.2273L26.1071 39.467L5.13574 39.3375Z" fill="url(#paint0_linear_1671_1594)"/>
<path d="M5.13567 39.3375L16.0803 21.1534L37.2962 21.7296L26.107 39.467L5.13567 39.3375Z" fill="url(#paint1_linear_1671_1594)"/>
<path d="M37.2961 21.7296L47.5674 40.4899L36.3783 58.2273L26.1069 39.467L37.2961 21.7296Z" fill="url(#paint2_linear_1671_1594)"/>
</g>
<g clip-path="url(#clip1_1671_1594)">
<path d="M62.1426 12.6793L40.9172 38.038L52.5458 68.3068L73.7713 42.9481L62.1426 12.6793Z" fill="url(#paint3_linear_1671_1594)"/>
<path d="M62.1422 12.6793L94.4909 18.1932L105.614 49.0658L73.7708 42.9481L62.1422 12.6793Z" fill="url(#paint4_linear_1671_1594)"/>
<path d="M105.614 49.0658L84.3885 74.4244L52.5452 68.3068L73.7706 42.9481L105.614 49.0658Z" fill="url(#paint5_linear_1671_1594)"/>
</g>
<g clip-path="url(#clip2_1671_1594)">
<path d="M44.5391 20.4983L42.9667 34.1138L53.8884 41.9452L55.4608 28.3297L44.5391 20.4983Z" fill="url(#paint6_linear_1671_1594)"/>
<path d="M44.539 20.4983L56.9957 15.0383L67.8799 23.1939L55.4607 28.3297L44.539 20.4983Z" fill="url(#paint7_linear_1671_1594)"/>
<path d="M67.8795 23.1938L66.307 36.8094L53.8878 41.9452L55.4602 28.3297L67.8795 23.1938Z" fill="url(#paint8_linear_1671_1594)"/>
</g>
<g clip-path="url(#clip3_1671_1594)">
<path d="M25.3984 60.5781L34.0898 71.1761L47.3125 68.773L38.6211 58.175L25.3984 60.5781Z" fill="url(#paint9_linear_1671_1594)"/>
<path d="M25.3984 60.5781L30.1367 47.8295L43.5663 45.6787L38.6211 58.1751L25.3984 60.5781Z" fill="url(#paint10_linear_1671_1594)"/>
<path d="M43.5664 45.6787L52.2577 56.2766L47.3125 68.773L38.6212 58.1751L43.5664 45.6787Z" fill="url(#paint11_linear_1671_1594)"/>
</g>
<defs>
<linearGradient id="paint0_linear_1671_1594" x1="13.1759" y1="34.9355" x2="28.3383" y2="62.6293" gradientUnits="userSpaceOnUse">
<stop stop-color="#FFAAE2"/>
<stop offset="1" stop-color="#8300AA"/>
</linearGradient>
<linearGradient id="paint1_linear_1671_1594" x1="5.01339" y1="39.1142" x2="37.1739" y2="21.5062" gradientUnits="userSpaceOnUse">
<stop stop-color="#FFAAE2"/>
<stop offset="1" stop-color="#8300AA"/>
</linearGradient>
<linearGradient id="paint2_linear_1671_1594" x1="31.8853" y1="56.9136" x2="41.7891" y2="23.0433" gradientUnits="userSpaceOnUse">
<stop stop-color="#FFAAE2"/>
<stop offset="1" stop-color="#8300AA"/>
</linearGradient>
<linearGradient id="paint3_linear_1671_1594" x1="73.0106" y1="21.7759" x2="41.6778" y2="59.2102" gradientUnits="userSpaceOnUse">
<stop stop-color="#FFAAE2"/>
<stop offset="1" stop-color="#8300AA"/>
</linearGradient>
<linearGradient id="paint4_linear_1671_1594" x1="62.3949" y1="12.3775" x2="105.867" y2="48.7639" gradientUnits="userSpaceOnUse">
<stop stop-color="#FFAAE2"/>
<stop offset="1" stop-color="#8300AA"/>
</linearGradient>
<linearGradient id="paint5_linear_1671_1594" x1="51.9055" y1="61.0974" x2="106.254" y2="56.2752" gradientUnits="userSpaceOnUse">
<stop stop-color="#FFAAE2"/>
<stop offset="1" stop-color="#8300AA"/>
</linearGradient>
<linearGradient id="paint6_linear_1671_1594" x1="50.3743" y1="21.1722" x2="48.0531" y2="41.2713" gradientUnits="userSpaceOnUse">
<stop stop-color="#FFAAE2"/>
<stop offset="1" stop-color="#8300AA"/>
</linearGradient>
<linearGradient id="paint7_linear_1671_1594" x1="44.5577" y1="20.3362" x2="67.8987" y2="23.0318" gradientUnits="userSpaceOnUse">
<stop stop-color="#FFAAE2"/>
<stop offset="1" stop-color="#8300AA"/>
</linearGradient>
<linearGradient id="paint8_linear_1671_1594" x1="52.024" y1="39.5947" x2="69.7433" y2="25.5444" gradientUnits="userSpaceOnUse">
<stop stop-color="#FFAAE2"/>
<stop offset="1" stop-color="#8300AA"/>
</linearGradient>
<linearGradient id="paint9_linear_1671_1594" x1="29.9404" y1="56.8533" x2="42.7705" y2="72.4978" gradientUnits="userSpaceOnUse">
<stop stop-color="#FFAAE2"/>
<stop offset="1" stop-color="#8300AA"/>
</linearGradient>
<linearGradient id="paint10_linear_1671_1594" x1="25.2949" y1="60.452" x2="43.4628" y2="45.5525" gradientUnits="userSpaceOnUse">
<stop stop-color="#FFAAE2"/>
<stop offset="1" stop-color="#8300AA"/>
</linearGradient>
<linearGradient id="paint11_linear_1671_1594" x1="44.3273" y1="68.4779" x2="46.5516" y2="45.9738" gradientUnits="userSpaceOnUse">
<stop stop-color="#FFAAE2"/>
<stop offset="1" stop-color="#8300AA"/>
</linearGradient>
<clipPath id="clip0_1671_1594">
<rect width="36.6652" height="42.2669" fill="white" transform="translate(0 29.9574) rotate(-28.7009)"/>
</clipPath>
<clipPath id="clip1_1671_1594">
<rect width="56.6903" height="65.3513" fill="white" transform="translate(72.7549) rotate(39.9296)"/>
</clipPath>
<clipPath id="clip2_1671_1594">
<rect width="23.4961" height="27.0857" fill="white" transform="translate(45.3252 13.6906) rotate(6.58769)"/>
</clipPath>
<clipPath id="clip3_1671_1594">
<rect width="23.4961" height="27.0857" fill="white" transform="translate(21.0527 55.2792) rotate(-39.3551)"/>
</clipPath>
</defs>
</svg>
