<svg width="134" height="157" viewBox="0 0 134 157" fill="none" xmlns="http://www.w3.org/2000/svg">
<g filter="url(#filter0_dd_1306_3588)">
<path d="M67.6241 97.2304L63.6387 90.8522L88.082 85.1972L92.0674 91.5754L67.6241 97.2304Z" fill="url(#paint0_linear_1306_3588)"/>
<path d="M64.2696 72.3716L60.2842 65.9934L81.8962 60.9924L85.8816 67.3706L64.2696 72.3716Z" fill="url(#paint1_linear_1306_3588)"/>
<path d="M53.0903 112.88L49.1048 106.501L40.8647 45.4739L44.8502 51.8521L53.0903 112.88Z" fill="url(#paint2_linear_1306_3588)"/>
<path d="M44.8502 51.8521L40.8647 45.4739L81.4497 36.0875L85.4351 42.4657L44.8502 51.8521Z" fill="url(#paint3_linear_1306_3588)"/>
<path d="M85.4356 42.4656L87.0436 54.368L62.6003 60.023L64.2698 72.3716L85.8818 67.3706L87.4283 78.8421L65.8163 83.8431L67.6243 97.2304L92.0677 91.5754L93.6757 103.485L53.0907 112.88L44.8506 51.8521L85.4356 42.4656Z" fill="url(#paint4_linear_1306_3588)"/>
</g>
<defs>
<filter id="filter0_dd_1306_3588" x="0.864746" y="0.0874634" width="132.811" height="156.792" filterUnits="userSpaceOnUse" color-interpolation-filters="sRGB">
<feFlood flood-opacity="0" result="BackgroundImageFix"/>
<feColorMatrix in="SourceAlpha" type="matrix" values="0 0 0 0 0 0 0 0 0 0 0 0 0 0 0 0 0 0 127 0" result="hardAlpha"/>
<feOffset dy="4"/>
<feGaussianBlur stdDeviation="2"/>
<feComposite in2="hardAlpha" operator="out"/>
<feColorMatrix type="matrix" values="0 0 0 0 0 0 0 0 0 0 0 0 0 0 0 0 0 0 0.1 0"/>
<feBlend mode="normal" in2="BackgroundImageFix" result="effect1_dropShadow_1306_3588"/>
<feColorMatrix in="SourceAlpha" type="matrix" values="0 0 0 0 0 0 0 0 0 0 0 0 0 0 0 0 0 0 127 0" result="hardAlpha"/>
<feOffset dy="4"/>
<feGaussianBlur stdDeviation="20"/>
<feComposite in2="hardAlpha" operator="out"/>
<feColorMatrix type="matrix" values="0 0 0 0 1 0 0 0 0 1 0 0 0 0 1 0 0 0 0.75 0"/>
<feBlend mode="normal" in2="effect1_dropShadow_1306_3588" result="effect2_dropShadow_1306_3588"/>
<feBlend mode="normal" in="SourceGraphic" in2="effect2_dropShadow_1306_3588" result="shape"/>
</filter>
<linearGradient id="paint0_linear_1306_3588" x1="63.6402" y1="91.2143" x2="92.0697" y2="91.2143" gradientUnits="userSpaceOnUse">
<stop stop-color="#FFAAE2"/>
<stop offset="1" stop-color="#8300AA"/>
</linearGradient>
<linearGradient id="paint1_linear_1306_3588" x1="60.2823" y1="66.684" x2="85.8778" y2="66.684" gradientUnits="userSpaceOnUse">
<stop stop-color="#FFAAE2"/>
<stop offset="1" stop-color="#8300AA"/>
</linearGradient>
<linearGradient id="paint2_linear_1306_3588" x1="40.8647" y1="79.1774" x2="53.0933" y2="79.1774" gradientUnits="userSpaceOnUse">
<stop stop-color="#FFAAE2"/>
<stop offset="1" stop-color="#8300AA"/>
</linearGradient>
<linearGradient id="paint3_linear_1306_3588" x1="40.8647" y1="43.9705" x2="85.4355" y2="43.9705" gradientUnits="userSpaceOnUse">
<stop stop-color="#FFAAE2"/>
<stop offset="1" stop-color="#8300AA"/>
</linearGradient>
<linearGradient id="paint4_linear_1306_3588" x1="44.8505" y1="77.6702" x2="93.6791" y2="77.6702" gradientUnits="userSpaceOnUse">
<stop stop-color="#FFAAE2"/>
<stop offset="1" stop-color="#8300AA"/>
</linearGradient>
</defs>
</svg>
