<svg width="136" height="159" viewBox="0 0 136 159" fill="none" xmlns="http://www.w3.org/2000/svg">
<g filter="url(#filter0_dd_1306_3600)">
<path d="M54.8394 88.772L65.68 82.4708L82.7757 99.1048L71.9351 105.414L54.8394 88.772Z" fill="url(#paint0_linear_1306_3600)"/>
<path d="M71.9355 105.414L82.7761 99.1048L79.637 107.714L68.7964 114.015L71.9355 105.414Z" fill="url(#paint1_linear_1306_3600)"/>
<path d="M58.3708 79.1009L69.2114 72.7996L65.68 82.4708L54.8394 88.772L58.3708 79.1009Z" fill="url(#paint2_linear_1306_3600)"/>
<path d="M76.5051 85.5175L87.3534 79.2163L84.3298 87.5102L73.4814 93.8115L76.5051 85.5175Z" fill="url(#paint3_linear_1306_3600)"/>
<path d="M61.3945 70.8146L72.2351 64.5134L87.3535 79.2163L76.5052 85.5175L61.3945 70.8146Z" fill="url(#paint4_linear_1306_3600)"/>
<path d="M64.649 61.8898L75.4896 55.5885L72.2351 64.5134L61.3945 70.8146L64.649 61.8898Z" fill="url(#paint5_linear_1306_3600)"/>
<path d="M56.5015 42.3013L67.3421 36L95.7246 63.6209L84.884 69.9221L56.5015 42.3013Z" fill="url(#paint6_linear_1306_3600)"/>
<path d="M56.5014 42.3012L84.884 69.9221L81.7449 78.5315L64.6492 61.8898L61.3947 70.8146L76.5054 85.5175L73.4817 93.8115L58.371 79.1009L54.8395 88.772L71.9352 105.414L68.7961 114.015L40.4136 86.3946L56.5014 42.3012Z" fill="url(#paint7_linear_1306_3600)"/>
<path d="M84.8842 69.9221L95.7248 63.6209L92.5857 72.2303L81.7451 78.5315L84.8842 69.9221Z" fill="url(#paint8_linear_1306_3600)"/>
</g>
<defs>
<filter id="filter0_dd_1306_3600" x="0.413574" y="0" width="135.311" height="158.016" filterUnits="userSpaceOnUse" color-interpolation-filters="sRGB">
<feFlood flood-opacity="0" result="BackgroundImageFix"/>
<feColorMatrix in="SourceAlpha" type="matrix" values="0 0 0 0 0 0 0 0 0 0 0 0 0 0 0 0 0 0 127 0" result="hardAlpha"/>
<feOffset dy="4"/>
<feGaussianBlur stdDeviation="2"/>
<feComposite in2="hardAlpha" operator="out"/>
<feColorMatrix type="matrix" values="0 0 0 0 0 0 0 0 0 0 0 0 0 0 0 0 0 0 0.1 0"/>
<feBlend mode="normal" in2="BackgroundImageFix" result="effect1_dropShadow_1306_3600"/>
<feColorMatrix in="SourceAlpha" type="matrix" values="0 0 0 0 0 0 0 0 0 0 0 0 0 0 0 0 0 0 127 0" result="hardAlpha"/>
<feOffset dy="4"/>
<feGaussianBlur stdDeviation="20"/>
<feComposite in2="hardAlpha" operator="out"/>
<feColorMatrix type="matrix" values="0 0 0 0 1 0 0 0 0 1 0 0 0 0 1 0 0 0 0.75 0"/>
<feBlend mode="normal" in2="effect1_dropShadow_1306_3600" result="effect2_dropShadow_1306_3600"/>
<feBlend mode="normal" in="SourceGraphic" in2="effect2_dropShadow_1306_3600" result="shape"/>
</filter>
<linearGradient id="paint0_linear_1306_3600" x1="54.8379" y1="93.9401" x2="82.7782" y2="93.9401" gradientUnits="userSpaceOnUse">
<stop stop-color="#FFAAE2"/>
<stop offset="1" stop-color="#8300AA"/>
</linearGradient>
<linearGradient id="paint1_linear_1306_3600" x1="68.7945" y1="106.563" x2="82.7786" y2="106.563" gradientUnits="userSpaceOnUse">
<stop stop-color="#FFAAE2"/>
<stop offset="1" stop-color="#8300AA"/>
</linearGradient>
<linearGradient id="paint2_linear_1306_3600" x1="54.8379" y1="80.7861" x2="69.2138" y2="80.7861" gradientUnits="userSpaceOnUse">
<stop stop-color="#FFAAE2"/>
<stop offset="1" stop-color="#8300AA"/>
</linearGradient>
<linearGradient id="paint3_linear_1306_3600" x1="73.4813" y1="86.5134" x2="87.3514" y2="86.5134" gradientUnits="userSpaceOnUse">
<stop stop-color="#FFAAE2"/>
<stop offset="1" stop-color="#8300AA"/>
</linearGradient>
<linearGradient id="paint4_linear_1306_3600" x1="61.3935" y1="75.0154" x2="87.3515" y2="75.0154" gradientUnits="userSpaceOnUse">
<stop stop-color="#FFAAE2"/>
<stop offset="1" stop-color="#8300AA"/>
</linearGradient>
<linearGradient id="paint5_linear_1306_3600" x1="61.3935" y1="63.2015" x2="75.4916" y2="63.2015" gradientUnits="userSpaceOnUse">
<stop stop-color="#FFAAE2"/>
<stop offset="1" stop-color="#8300AA"/>
</linearGradient>
<linearGradient id="paint6_linear_1306_3600" x1="56.5001" y1="52.9611" x2="95.726" y2="52.9611" gradientUnits="userSpaceOnUse">
<stop stop-color="#FFAAE2"/>
<stop offset="1" stop-color="#8300AA"/>
</linearGradient>
<linearGradient id="paint7_linear_1306_3600" x1="40.4136" y1="78.1601" x2="84.8807" y2="78.1601" gradientUnits="userSpaceOnUse">
<stop stop-color="#FFAAE2"/>
<stop offset="1" stop-color="#8300AA"/>
</linearGradient>
<linearGradient id="paint8_linear_1306_3600" x1="81.742" y1="71.0748" x2="95.7261" y2="71.0748" gradientUnits="userSpaceOnUse">
<stop stop-color="#FFAAE2"/>
<stop offset="1" stop-color="#8300AA"/>
</linearGradient>
</defs>
</svg>
