<svg width="181" height="230" viewBox="0 0 181 230" fill="none" xmlns="http://www.w3.org/2000/svg">
<g clip-path="url(#clip0_1074_4079)">
<path d="M37.0859 209.409L64.1312 224.941L91.1764 209.409L64.1312 194.127L37.0859 209.409Z" fill="#8569B2"/>
<path d="M42.4951 209.434L64.1313 221.86L85.7675 209.434L64.1313 197.209L42.4951 209.434Z" fill="#573982"/>
<path d="M54.9912 209.785V188.741L64.2567 194.253L64.0063 214.795L54.9912 209.785Z" fill="#422369"/>
<path d="M64.0059 214.795L73.0209 209.284V188.741L64.2563 194.253L64.0059 214.795Z" fill="#573982"/>
<path d="M54.9912 188.741L64.0063 183.48L73.0214 188.741L64.2567 194.253L54.9912 188.741Z" fill="#8569B2"/>
<path d="M55.3662 178.345L63.8804 183.606L72.8955 178.094L64.1309 173.084L55.3662 178.345Z" stroke="url(#paint0_linear_1074_4079)" stroke-width="0.6" stroke-miterlimit="10"/>
<path d="M55.1162 167.823L63.6304 173.084L72.6455 167.572L63.8809 162.562L55.1162 167.823Z" stroke="url(#paint1_linear_1074_4079)" stroke-width="0.6" stroke-miterlimit="10"/>
<path d="M55.1162 157.552L63.6304 162.812L72.6455 157.301L63.8809 152.291L55.1162 157.552Z" stroke="url(#paint2_linear_1074_4079)" stroke-width="0.6" stroke-miterlimit="10"/>
<path d="M55.3662 147.03L63.8804 152.291L72.8955 146.779L64.1309 141.769L55.3662 147.03Z" stroke="url(#paint3_linear_1074_4079)" stroke-width="0.6" stroke-miterlimit="10"/>
<path d="M55.1162 136.758L63.6304 142.019L72.6455 136.508L63.8809 131.498L55.1162 136.758Z" stroke="url(#paint4_linear_1074_4079)" stroke-width="0.6" stroke-miterlimit="10"/>
<path d="M55.3662 130.495L63.8804 135.756L72.8955 130.245L64.1309 125.235L55.3662 130.495Z" stroke="url(#paint5_linear_1074_4079)" stroke-width="0.6" stroke-miterlimit="10"/>
<path d="M56.8948 145.101L56.8447 145.131L56.8948 159.43V159.631L56.8447 159.661L56.8948 173.961V174.161L56.8447 174.191L56.8948 188.491V188.691L55.9933 189.217L55.0918 188.691V188.491L55.1419 174.191L55.0918 174.161V173.961L55.1419 159.661L55.0918 159.631V159.43L55.1419 145.131L55.0918 145.101V144.9L55.1419 130.45L55.9933 130.946L56.8447 130.45L56.8948 144.9V145.101Z" fill="url(#paint6_linear_1074_4079)"/>
<path d="M65.1575 149.861L65.1074 149.891L65.1575 164.19V164.391L65.1074 164.421L65.1575 178.72V178.921L65.1074 178.951L65.1575 193.251V193.451L64.256 193.977L63.3545 193.451V193.251L63.4046 178.951L63.3545 178.921V178.72L63.4046 164.421L63.3545 164.391V164.19L63.4046 149.891L63.3545 149.861V149.66L63.4046 135.21L64.256 135.706L65.1074 135.21L65.1575 149.66V149.861Z" fill="url(#paint7_linear_1074_4079)"/>
<path d="M72.9212 145.101L72.8711 145.131L72.9212 159.43V159.631L72.8711 159.661L72.9212 173.961V174.161L72.8711 174.191L72.9212 188.491V188.691L72.0197 189.217L71.1182 188.691V188.491L71.1683 174.191L71.1182 174.161V173.961L71.1683 159.661L71.1182 159.631V159.43L71.1683 145.131L71.1182 145.101V144.9L71.1683 130.45L72.0197 130.946L72.8711 130.45L72.9212 144.9V145.101Z" fill="url(#paint8_linear_1074_4079)"/>
<path d="M55.3662 120.725L63.8804 125.986L72.8955 120.475L64.1309 115.464L55.3662 120.725Z" stroke="url(#paint9_linear_1074_4079)" stroke-width="0.6" stroke-miterlimit="10"/>
<path d="M55.1162 110.203L63.6304 115.464L72.6455 109.953L63.8809 104.942L55.1162 110.203Z" stroke="url(#paint10_linear_1074_4079)" stroke-width="0.6" stroke-miterlimit="10"/>
<path d="M55.1162 99.9321L63.6304 105.193L72.6455 99.6816L63.8809 94.6712L55.1162 99.9321Z" stroke="url(#paint11_linear_1074_4079)" stroke-width="0.6" stroke-miterlimit="10"/>
<path d="M55.3662 89.4103L63.8804 94.6712L72.8955 89.1598L64.1309 84.1494L55.3662 89.4103Z" stroke="url(#paint12_linear_1074_4079)" stroke-width="0.6" stroke-miterlimit="10"/>
<path d="M55.1162 79.139L63.6304 84.3999L72.6455 78.8885L63.8809 73.8781L55.1162 79.139Z" stroke="url(#paint13_linear_1074_4079)" stroke-width="0.6" stroke-miterlimit="10"/>
<path d="M55.3662 72.876L63.8804 78.1369L72.8955 72.6255L64.1309 67.6151L55.3662 72.876Z" stroke="url(#paint14_linear_1074_4079)" stroke-width="0.6" stroke-miterlimit="10"/>
<path d="M55.0908 72.8009L55.9923 72.2748L56.8938 72.8009L55.9923 73.327L55.0908 72.8009Z" fill="url(#paint15_linear_1074_4079)"/>
<path d="M56.8948 87.4813L56.8447 87.5114L56.8948 101.811V102.011L56.8447 102.041L56.8948 116.341V116.542L56.8447 116.572L56.8948 130.871V131.072L55.9933 131.598L55.0918 131.072V130.871L55.1419 116.572L55.0918 116.542V116.341L55.1419 102.041L55.0918 102.011V101.811L55.1419 87.5114L55.0918 87.4813V87.2809L55.1419 72.8309L55.9933 73.327L56.8447 72.8309L56.8948 87.2809V87.4813Z" fill="url(#paint16_linear_1074_4079)"/>
<path d="M63.3555 77.5607L64.257 77.0346L65.1585 77.5607L64.257 78.0868L63.3555 77.5607Z" fill="url(#paint17_linear_1074_4079)"/>
<path d="M65.1575 92.2412L65.1074 92.2712L65.1575 106.571V106.771L65.1074 106.801L65.1575 121.101V121.301L65.1074 121.331L65.1575 135.631V135.832L64.256 136.358L63.3545 135.832V135.631L63.4046 121.331L63.3545 121.301V121.101L63.4046 106.801L63.3545 106.771V106.571L63.4046 92.2712L63.3545 92.2412V92.0408L63.4046 77.5908L64.256 78.0868L65.1074 77.5908L65.1575 92.0408V92.2412Z" fill="url(#paint18_linear_1074_4079)"/>
<path d="M71.1172 72.8009L72.0187 72.2748L72.9202 72.8009L72.0187 73.327L71.1172 72.8009Z" fill="url(#paint19_linear_1074_4079)"/>
<path d="M72.9212 87.4813L72.8711 87.5114L72.9212 101.811V102.011L72.8711 102.041L72.9212 116.341V116.542L72.8711 116.572L72.9212 130.871V131.072L72.0197 131.598L71.1182 131.072V130.871L71.1683 116.572L71.1182 116.542V116.341L71.1683 102.041L71.1182 102.011V101.811L71.1683 87.5114L71.1182 87.4813V87.2809L71.1683 72.8309L72.0197 73.327L72.8711 72.8309L72.9212 87.2809V87.4813Z" fill="url(#paint20_linear_1074_4079)"/>
<path d="M37.0857 209.409L34.3311 212.165L65.1326 229.2L64.1309 224.941L37.0857 209.409Z" fill="#422369"/>
<path d="M91.1771 209.409L93.6812 212.165L65.1335 229.2L64.1318 224.941L91.1771 209.409Z" fill="#573982"/>
<path d="M158.814 3.15655L164.374 3.8147e-06L169.633 3.15655L164.224 6.31309L158.814 3.15655Z" fill="#8569B2"/>
<path d="M180.301 3.15655L175.042 3.8147e-06L158.965 9.46963L164.374 12.4759L180.301 3.15655Z" fill="#8569B2"/>
<path d="M164.224 6.31309L164.148 12.7013L169.633 9.46963V3.15655L164.224 6.31309Z" fill="#573982"/>
<path d="M164.148 12.7013L180.3 3.15655V15.6324L164.224 25.2523L164.148 12.7013Z" fill="#573982"/>
<path d="M158.814 3.15656V21.9455L164.224 25.2523V6.3131L158.814 3.15656Z" fill="#422369"/>
<path d="M142.587 19.6407V25.9538L147.996 28.96V22.7972L142.587 19.6407Z" fill="#422369"/>
<path d="M10.166 99.6816V110.955L19.1811 116.216V104.637L10.166 99.6816Z" stroke="url(#paint21_linear_1074_4079)" stroke-width="0.6" stroke-miterlimit="10"/>
<path d="M1.15039 104.942V116.216L10.1655 121.477V109.898L1.15039 104.942Z" stroke="url(#paint22_linear_1074_4079)" stroke-width="0.6" stroke-miterlimit="10"/>
<path d="M19.1807 94.6712V105.945L28.1957 111.205V99.6265L19.1807 94.6712Z" stroke="url(#paint23_linear_1074_4079)" stroke-width="0.6" stroke-miterlimit="10"/>
<path d="M28.1963 89.4103V100.684L37.2114 105.945V94.3656L28.1963 89.4103Z" stroke="url(#paint24_linear_1074_4079)" stroke-width="0.6" stroke-miterlimit="10"/>
<path d="M36.9609 84.1494V95.4228L45.976 100.684V89.1047L36.9609 84.1494Z" stroke="url(#paint25_linear_1074_4079)" stroke-width="0.6" stroke-miterlimit="10"/>
<path d="M45.9756 79.139V90.4124L54.9907 95.6733V84.0943L45.9756 79.139Z" stroke="url(#paint26_linear_1074_4079)" stroke-width="0.6" stroke-miterlimit="10"/>
<path d="M73.0205 62.6047V73.8781L82.0356 79.139V67.56L73.0205 62.6047Z" stroke="url(#paint27_linear_1074_4079)" stroke-width="0.6" stroke-miterlimit="10"/>
<path d="M81.5352 57.8449V69.1182L90.5502 74.3791V62.8001L81.5352 57.8449Z" stroke="url(#paint28_linear_1074_4079)" stroke-width="0.6" stroke-miterlimit="10"/>
<path d="M91.0518 52.584V63.8573L100.067 69.1182V57.5392L91.0518 52.584Z" stroke="url(#paint29_linear_1074_4079)" stroke-width="0.6" stroke-miterlimit="10"/>
<path d="M100.316 47.5736V58.8469L109.331 64.1079V52.5289L100.316 47.5736Z" stroke="url(#paint30_linear_1074_4079)" stroke-width="0.6" stroke-miterlimit="10"/>
<path d="M109.081 42.0622V53.3355L118.096 58.5964V47.0174L109.081 42.0622Z" stroke="url(#paint31_linear_1074_4079)" stroke-width="0.6" stroke-miterlimit="10"/>
<path d="M118.096 37.3023V48.5757L127.111 53.8366V42.2576L118.096 37.3023Z" stroke="url(#paint32_linear_1074_4079)" stroke-width="0.6" stroke-miterlimit="10"/>
<path d="M127.111 31.7909V43.0642L136.126 48.3251V36.7462L127.111 31.7909Z" stroke="url(#paint33_linear_1074_4079)" stroke-width="0.6" stroke-miterlimit="10"/>
<path d="M136.126 26.53V37.8033L145.141 43.0642V31.4853L136.126 26.53Z" stroke="url(#paint34_linear_1074_4079)" stroke-width="0.6" stroke-miterlimit="10"/>
<path d="M1.02539 104.604V105.656L1.9269 106.183L1.95194 105.18L1.02539 104.604Z" fill="url(#paint35_linear_1074_4079)"/>
<path d="M147.12 19.2775L139.006 23.9371L139.079 23.9822L131.744 28.1959L131.787 28.2235L123.981 32.7053L124.024 32.7328L116.218 37.2146L116.261 37.2422L108.455 41.724L108.688 41.8693L105.45 43.7281L105.523 43.7732L98.1879 47.987L98.2304 48.0145L90.4249 52.4963L90.4675 52.5239L82.6619 57.0056L82.7045 57.0332L74.8989 61.515L74.9766 61.5626L69.3897 64.7717L69.4623 64.8168L62.1276 69.0306L62.1701 69.0581L54.3646 73.5399L54.4072 73.5675L46.6016 78.0493L46.6442 78.0768L38.8386 82.5586L38.9112 82.6037L31.5765 86.8174L31.6491 86.8625L24.3143 91.0762L24.3569 91.1038L16.5514 95.5856L16.5939 95.6132L8.78837 100.095L8.83094 100.122L1.02539 104.604L1.95194 105.18L1.9269 106.183L10.0405 101.523V101.473L17.8034 97.0135V96.9634L25.5664 92.5042V92.4541L33.3294 87.9949V87.9072L40.5916 83.736V83.6484L47.8537 79.4772V79.4271L55.6167 74.9679V74.9178L63.3797 70.4585V70.4084L71.1426 65.9492V65.8615L78.4048 61.6904V61.5977L83.914 58.4336V58.3835L91.677 53.9243V53.8742L99.44 49.4149V49.3648L107.203 44.9056V44.8179L114.465 40.6467V40.3687L117.47 38.6426V38.5925L125.233 34.1332V34.0831L132.996 29.6239V29.5738L140.759 25.1146V25.0269L148.021 20.8557V19.8286L147.12 19.2775Z" fill="url(#paint36_linear_1074_4079)"/>
<path d="M142.587 19.6407L158.814 10.3214L164.223 13.3276L147.996 22.7973L142.587 19.6407Z" fill="#8569B2"/>
<path d="M164.223 13.3276V19.6407L147.996 28.96V22.7973L164.223 13.3276Z" fill="#573982"/>
<path d="M1.02539 114.876V115.928L1.9269 116.454L1.95194 115.452L1.02539 114.876Z" fill="url(#paint37_linear_1074_4079)"/>
<path d="M147.12 29.5487L139.006 34.2084L139.079 34.2535L131.744 38.4672L131.787 38.4948L123.981 42.9766L124.024 43.0041L116.218 47.4859L116.261 47.5135L108.455 51.9953L108.688 52.1406L105.45 53.9994L105.523 54.0445L98.1879 58.2582L98.2304 58.2858L90.4249 62.7676L90.4675 62.7951L82.6619 67.2769L82.7045 67.3045L74.8989 71.7863L74.9766 71.8339L69.3897 75.043L69.4623 75.0881L62.1276 79.3018L62.1701 79.3294L54.3646 83.8112L54.4072 83.8387L46.6016 88.3205L46.6442 88.3481L38.8386 92.8299L38.9112 92.875L31.5765 97.0887L31.6491 97.1338L24.3143 101.348L24.3569 101.375L16.5514 105.857L16.5939 105.884L8.78837 110.366L8.83094 110.394L1.02539 114.876L1.95194 115.452L1.9269 116.454L10.0405 111.794V111.744L17.8034 107.285V107.235L25.5664 102.775V102.725L33.3294 98.2661V98.1785L40.5916 94.0073V93.9196L47.8537 89.7485V89.6984L55.6167 85.2391V85.189L63.3797 80.7298V80.6797L71.1426 76.2205V76.1328L78.4048 71.9616V71.8689L83.914 68.7049V68.6548L91.677 64.1955V64.1454L99.44 59.6862V59.6361L107.203 55.1768V55.0892L114.465 50.918V50.6399L117.47 48.9139V48.8638L125.233 44.4045V44.3544L132.996 39.8952V39.8451L140.759 35.3858V35.2981L148.021 31.127V30.0999L147.12 29.5487Z" fill="url(#paint38_linear_1074_4079)"/>
<path d="M9.03906 109.364V110.416L9.94057 110.942L9.96561 109.94L9.03906 109.364Z" fill="url(#paint39_linear_1074_4079)"/>
<path d="M155.133 24.0373L147.02 28.697L147.092 28.7421L139.758 32.9558L139.8 32.9834L131.995 37.4651L132.037 37.4927L124.232 41.9745L124.274 42.0021L116.469 46.4838L116.702 46.6291L113.464 48.488L113.536 48.5331L106.202 52.7468L106.244 52.7744L98.4386 57.2562L98.4811 57.2837L90.6756 61.7655L90.7181 61.7931L82.9126 66.2748L82.9902 66.3224L77.4034 69.5316L77.476 69.5767L70.1412 73.7904L70.1838 73.818L62.3783 78.2998L62.4208 78.3273L54.6153 82.8091L54.6578 82.8367L46.8523 87.3185L46.9249 87.3636L39.5902 91.5773L39.6628 91.6224L32.328 95.8361L32.3706 95.8637L24.565 100.345L24.6076 100.373L16.802 104.855L16.8446 104.882L9.03906 109.364L9.96561 109.94L9.94057 110.942L18.0541 106.283V106.233L25.8171 101.773V101.723L33.5801 97.2641V97.214L41.3431 92.7547V92.667L48.6052 88.4959V88.4082L55.8674 84.2371V84.187L63.6304 79.7277V79.6776L71.3933 75.2184V75.1683L79.1563 70.709V70.6214L86.4185 66.4502V66.3575L91.9277 63.1935V63.1434L99.6907 58.6841V58.634L107.454 54.1748V54.1247L115.217 49.6654V49.5777L122.479 45.4066V45.1285L125.484 43.4025V43.3523L133.247 38.8931V38.843L141.01 34.3838V34.3337L148.773 29.8744V29.7867L156.035 25.6156V24.5885L155.133 24.0373Z" fill="url(#paint40_linear_1074_4079)"/>
<path d="M155.133 34.3086L147.02 38.9683L147.092 39.0133L139.758 43.2271L139.8 43.2546L131.995 47.7364L132.037 47.764L124.232 52.2458L124.274 52.2733L116.469 56.7551L116.702 56.9004L113.464 58.7593L113.536 58.8044L106.202 63.0181L106.244 63.0457L98.4386 67.5274L98.4811 67.555L90.6756 72.0368L90.7181 72.0643L82.9126 76.5461L82.9902 76.5937L77.4034 79.8029L77.476 79.848L70.1412 84.0617L70.1838 84.0893L62.3783 88.571L62.4208 88.5986L54.6153 93.0804L54.6578 93.108L46.8523 97.5897L46.9249 97.6348L39.5902 101.849L39.6628 101.894L32.328 106.107L32.3706 106.135L24.565 110.617L24.6076 110.644L16.802 115.126L16.8446 115.154L9.03906 119.635L9.96561 120.212L9.94057 121.214L18.0541 116.554V116.504L25.8171 112.045V111.995L33.5801 107.535V107.485L41.3431 103.026V102.938L48.6052 98.7672V98.6795L55.8674 94.5084V94.4582L63.6304 89.999V89.9489L71.3933 85.4897V85.4396L79.1563 80.9803V80.8926L86.4185 76.7215V76.6288L91.9277 73.4647V73.4146L99.6907 68.9554V68.9053L107.454 64.4461V64.3959L115.217 59.9367V59.849L122.479 55.6779V55.3998L125.484 53.6737V53.6236L133.247 49.1644V49.1143L141.01 44.655V44.6049L148.773 40.1457V40.058L156.035 35.8869V34.8597L155.133 34.3086Z" fill="url(#paint41_linear_1074_4079)"/>
<path d="M6.69531 107.989V211.664" stroke="url(#paint42_linear_1074_4079)" stroke-width="1.5" stroke-miterlimit="10"/>
</g>
<defs>
<linearGradient id="paint0_linear_1074_4079" x1="54.8847" y1="178.346" x2="73.3876" y2="178.346" gradientUnits="userSpaceOnUse">
<stop stop-color="#573982"/>
<stop offset="0.9888" stop-color="#8569B2"/>
</linearGradient>
<linearGradient id="paint1_linear_1074_4079" x1="54.6347" y1="167.825" x2="73.1376" y2="167.825" gradientUnits="userSpaceOnUse">
<stop stop-color="#573982"/>
<stop offset="0.9888" stop-color="#8569B2"/>
</linearGradient>
<linearGradient id="paint2_linear_1074_4079" x1="54.6347" y1="157.553" x2="73.1376" y2="157.553" gradientUnits="userSpaceOnUse">
<stop stop-color="#573982"/>
<stop offset="0.9888" stop-color="#8569B2"/>
</linearGradient>
<linearGradient id="paint3_linear_1074_4079" x1="54.8847" y1="147.032" x2="73.3876" y2="147.032" gradientUnits="userSpaceOnUse">
<stop stop-color="#573982"/>
<stop offset="0.9888" stop-color="#8569B2"/>
</linearGradient>
<linearGradient id="paint4_linear_1074_4079" x1="54.6347" y1="136.76" x2="73.1376" y2="136.76" gradientUnits="userSpaceOnUse">
<stop stop-color="#573982"/>
<stop offset="0.9888" stop-color="#8569B2"/>
</linearGradient>
<linearGradient id="paint5_linear_1074_4079" x1="54.8847" y1="130.497" x2="73.3876" y2="130.497" gradientUnits="userSpaceOnUse">
<stop stop-color="#573982"/>
<stop offset="0.9888" stop-color="#8569B2"/>
</linearGradient>
<linearGradient id="paint6_linear_1074_4079" x1="55.0918" y1="159.834" x2="56.8948" y2="159.834" gradientUnits="userSpaceOnUse">
<stop stop-color="#573982"/>
<stop offset="0.9888" stop-color="#8569B2"/>
</linearGradient>
<linearGradient id="paint7_linear_1074_4079" x1="63.3545" y1="164.594" x2="65.1575" y2="164.594" gradientUnits="userSpaceOnUse">
<stop stop-color="#573982"/>
<stop offset="0.9888" stop-color="#8569B2"/>
</linearGradient>
<linearGradient id="paint8_linear_1074_4079" x1="71.1182" y1="159.834" x2="72.9212" y2="159.834" gradientUnits="userSpaceOnUse">
<stop stop-color="#573982"/>
<stop offset="0.9888" stop-color="#8569B2"/>
</linearGradient>
<linearGradient id="paint9_linear_1074_4079" x1="54.8847" y1="120.727" x2="73.3876" y2="120.727" gradientUnits="userSpaceOnUse">
<stop stop-color="#573982"/>
<stop offset="0.9888" stop-color="#8569B2"/>
</linearGradient>
<linearGradient id="paint10_linear_1074_4079" x1="54.6347" y1="110.205" x2="73.1376" y2="110.205" gradientUnits="userSpaceOnUse">
<stop stop-color="#573982"/>
<stop offset="0.9888" stop-color="#8569B2"/>
</linearGradient>
<linearGradient id="paint11_linear_1074_4079" x1="54.6347" y1="99.934" x2="73.1376" y2="99.934" gradientUnits="userSpaceOnUse">
<stop stop-color="#573982"/>
<stop offset="0.9888" stop-color="#8569B2"/>
</linearGradient>
<linearGradient id="paint12_linear_1074_4079" x1="54.8847" y1="89.4121" x2="73.3876" y2="89.4121" gradientUnits="userSpaceOnUse">
<stop stop-color="#573982"/>
<stop offset="0.9888" stop-color="#8569B2"/>
</linearGradient>
<linearGradient id="paint13_linear_1074_4079" x1="54.6347" y1="79.1409" x2="73.1376" y2="79.1409" gradientUnits="userSpaceOnUse">
<stop stop-color="#573982"/>
<stop offset="0.9888" stop-color="#8569B2"/>
</linearGradient>
<linearGradient id="paint14_linear_1074_4079" x1="54.8847" y1="72.8779" x2="73.3876" y2="72.8779" gradientUnits="userSpaceOnUse">
<stop stop-color="#573982"/>
<stop offset="0.9888" stop-color="#8569B2"/>
</linearGradient>
<linearGradient id="paint15_linear_1074_4079" x1="55.0908" y1="72.8009" x2="56.8938" y2="72.8009" gradientUnits="userSpaceOnUse">
<stop stop-color="#573982"/>
<stop offset="0.9888" stop-color="#8569B2"/>
</linearGradient>
<linearGradient id="paint16_linear_1074_4079" x1="55.0918" y1="102.214" x2="56.8948" y2="102.214" gradientUnits="userSpaceOnUse">
<stop stop-color="#573982"/>
<stop offset="0.9888" stop-color="#8569B2"/>
</linearGradient>
<linearGradient id="paint17_linear_1074_4079" x1="63.3555" y1="77.5607" x2="65.1585" y2="77.5607" gradientUnits="userSpaceOnUse">
<stop stop-color="#573982"/>
<stop offset="0.9888" stop-color="#8569B2"/>
</linearGradient>
<linearGradient id="paint18_linear_1074_4079" x1="63.3545" y1="106.974" x2="65.1575" y2="106.974" gradientUnits="userSpaceOnUse">
<stop stop-color="#573982"/>
<stop offset="0.9888" stop-color="#8569B2"/>
</linearGradient>
<linearGradient id="paint19_linear_1074_4079" x1="71.1172" y1="72.8009" x2="72.9202" y2="72.8009" gradientUnits="userSpaceOnUse">
<stop stop-color="#573982"/>
<stop offset="0.9888" stop-color="#8569B2"/>
</linearGradient>
<linearGradient id="paint20_linear_1074_4079" x1="71.1182" y1="102.214" x2="72.9212" y2="102.214" gradientUnits="userSpaceOnUse">
<stop stop-color="#573982"/>
<stop offset="0.9888" stop-color="#8569B2"/>
</linearGradient>
<linearGradient id="paint21_linear_1074_4079" x1="9.9156" y1="107.955" x2="19.4315" y2="107.955" gradientUnits="userSpaceOnUse">
<stop stop-color="#573982"/>
<stop offset="0.9888" stop-color="#8569B2"/>
</linearGradient>
<linearGradient id="paint22_linear_1074_4079" x1="0.899972" y1="113.216" x2="10.4159" y2="113.216" gradientUnits="userSpaceOnUse">
<stop stop-color="#573982"/>
<stop offset="0.9888" stop-color="#8569B2"/>
</linearGradient>
<linearGradient id="paint23_linear_1074_4079" x1="18.9302" y1="102.945" x2="28.4462" y2="102.945" gradientUnits="userSpaceOnUse">
<stop stop-color="#573982"/>
<stop offset="0.9888" stop-color="#8569B2"/>
</linearGradient>
<linearGradient id="paint24_linear_1074_4079" x1="27.9459" y1="97.6838" x2="37.4618" y2="97.6838" gradientUnits="userSpaceOnUse">
<stop stop-color="#573982"/>
<stop offset="0.9888" stop-color="#8569B2"/>
</linearGradient>
<linearGradient id="paint25_linear_1074_4079" x1="36.7105" y1="92.4229" x2="46.2264" y2="92.4229" gradientUnits="userSpaceOnUse">
<stop stop-color="#573982"/>
<stop offset="0.9888" stop-color="#8569B2"/>
</linearGradient>
<linearGradient id="paint26_linear_1074_4079" x1="45.7252" y1="87.4125" x2="55.2411" y2="87.4125" gradientUnits="userSpaceOnUse">
<stop stop-color="#573982"/>
<stop offset="0.9888" stop-color="#8569B2"/>
</linearGradient>
<linearGradient id="paint27_linear_1074_4079" x1="72.7701" y1="70.8782" x2="82.286" y2="70.8782" gradientUnits="userSpaceOnUse">
<stop stop-color="#573982"/>
<stop offset="0.9888" stop-color="#8569B2"/>
</linearGradient>
<linearGradient id="paint28_linear_1074_4079" x1="81.2847" y1="66.1183" x2="90.8007" y2="66.1183" gradientUnits="userSpaceOnUse">
<stop stop-color="#573982"/>
<stop offset="0.9888" stop-color="#8569B2"/>
</linearGradient>
<linearGradient id="paint29_linear_1074_4079" x1="90.8013" y1="60.8574" x2="100.317" y2="60.8574" gradientUnits="userSpaceOnUse">
<stop stop-color="#573982"/>
<stop offset="0.9888" stop-color="#8569B2"/>
</linearGradient>
<linearGradient id="paint30_linear_1074_4079" x1="100.066" y1="55.8471" x2="109.582" y2="55.8471" gradientUnits="userSpaceOnUse">
<stop stop-color="#573982"/>
<stop offset="0.9888" stop-color="#8569B2"/>
</linearGradient>
<linearGradient id="paint31_linear_1074_4079" x1="108.831" y1="50.3356" x2="118.347" y2="50.3356" gradientUnits="userSpaceOnUse">
<stop stop-color="#573982"/>
<stop offset="0.9888" stop-color="#8569B2"/>
</linearGradient>
<linearGradient id="paint32_linear_1074_4079" x1="117.845" y1="45.5758" x2="127.361" y2="45.5758" gradientUnits="userSpaceOnUse">
<stop stop-color="#573982"/>
<stop offset="0.9888" stop-color="#8569B2"/>
</linearGradient>
<linearGradient id="paint33_linear_1074_4079" x1="126.861" y1="40.0644" x2="136.377" y2="40.0644" gradientUnits="userSpaceOnUse">
<stop stop-color="#573982"/>
<stop offset="0.9888" stop-color="#8569B2"/>
</linearGradient>
<linearGradient id="paint34_linear_1074_4079" x1="135.876" y1="34.8035" x2="145.391" y2="34.8035" gradientUnits="userSpaceOnUse">
<stop stop-color="#573982"/>
<stop offset="0.9888" stop-color="#8569B2"/>
</linearGradient>
<linearGradient id="paint35_linear_1074_4079" x1="1.02539" y1="105.393" x2="1.95194" y2="105.393" gradientUnits="userSpaceOnUse">
<stop stop-color="#573982"/>
<stop offset="0.9888" stop-color="#8569B2"/>
</linearGradient>
<linearGradient id="paint36_linear_1074_4079" x1="75.4125" y1="63.7652" x2="74.0709" y2="61.4425" gradientUnits="userSpaceOnUse">
<stop stop-color="#573982"/>
<stop offset="0.9888" stop-color="#8569B2"/>
</linearGradient>
<linearGradient id="paint37_linear_1074_4079" x1="1.02539" y1="115.665" x2="1.95194" y2="115.665" gradientUnits="userSpaceOnUse">
<stop stop-color="#573982"/>
<stop offset="0.9888" stop-color="#8569B2"/>
</linearGradient>
<linearGradient id="paint38_linear_1074_4079" x1="75.4125" y1="74.0365" x2="74.0709" y2="71.7138" gradientUnits="userSpaceOnUse">
<stop stop-color="#573982"/>
<stop offset="0.9888" stop-color="#8569B2"/>
</linearGradient>
<linearGradient id="paint39_linear_1074_4079" x1="9.03906" y1="110.153" x2="9.96561" y2="110.153" gradientUnits="userSpaceOnUse">
<stop stop-color="#573982"/>
<stop offset="0.9888" stop-color="#8569B2"/>
</linearGradient>
<linearGradient id="paint40_linear_1074_4079" x1="83.4261" y1="68.5251" x2="82.0846" y2="66.2024" gradientUnits="userSpaceOnUse">
<stop stop-color="#573982"/>
<stop offset="0.9888" stop-color="#8569B2"/>
</linearGradient>
<linearGradient id="paint41_linear_1074_4079" x1="83.4261" y1="78.7964" x2="82.0846" y2="76.4737" gradientUnits="userSpaceOnUse">
<stop stop-color="#573982"/>
<stop offset="0.9888" stop-color="#8569B2"/>
</linearGradient>
<linearGradient id="paint42_linear_1074_4079" x1="-nan" y1="-nan" x2="-nan" y2="-nan" gradientUnits="userSpaceOnUse">
<stop stop-color="#573982"/>
<stop offset="0.9888" stop-color="#8569B2"/>
</linearGradient>
<clipPath id="clip0_1074_4079">
<rect width="179.4" height="229.2" fill="white" transform="translate(0.900391)"/>
</clipPath>
</defs>
</svg>
