<svg width="92" height="112" viewBox="0 0 92 112" fill="none" xmlns="http://www.w3.org/2000/svg">
<g clip-path="url(#clip0_1065_5501)">
<path d="M17.6899 61.7301L51.4999 42.0801L67.9599 51.5901L34.1499 71.2401L17.6899 61.7301Z" fill="#C59FCE"/>
<path d="M49.6899 96.9L83.4999 77.25L83.4599 91.89L49.6499 111.54L49.6899 96.9Z" fill="#B18FB8"/>
<path d="M57.77 84.8697L91.58 65.2197L91.54 81.8897L57.73 101.54L57.77 84.8697Z" fill="#B18FB8"/>
<path d="M49.74 80.2301L83.55 60.5801L91.58 65.2201L57.77 84.8701L49.74 80.2301Z" fill="#C59FCE"/>
<path d="M34.2299 42.6305L68.0399 22.9805L51.4999 42.0805L17.6899 61.7305L34.2299 42.6305Z" fill="#765F7B"/>
<path d="M49.88 30.4596L83.69 10.8096L83.55 60.5796L49.74 80.2296L49.88 30.4596Z" fill="#B18FB8"/>
<path d="M31.1599 19.65L64.9699 0L83.6899 10.81L49.8799 30.46L31.1599 19.65Z" fill="#C59FCE"/>
<path d="M49.74 80.2304L57.78 84.8704L57.73 101.54L49.69 96.9004L49.65 111.54L32.89 101.86L32.93 87.2204L0 68.2104L0.04 52.6704L31.15 19.6504L49.87 30.4604L49.74 80.2304ZM34.15 71.2404L34.23 42.6404L17.68 61.7404L34.15 71.2404Z" fill="#7B6380"/>
</g>
<defs>
<clipPath id="clip0_1065_5501">
<rect width="91.58" height="111.54" fill="white"/>
</clipPath>
</defs>
</svg>
