<svg width="41" height="34" viewBox="0 0 41 34" fill="none" xmlns="http://www.w3.org/2000/svg">
<g clip-path="url(#clip0_1074_4003)">
<path d="M27.6552 5.257L27.6132 19.573L12.5322 21.352L12.5742 7.039L27.6552 5.257Z" fill="#A887AF"/>
<path d="M12.8958 13.336L12.8538 27.652L0.799805 20.692L0.841805 6.37601L12.8958 13.336Z" fill="#7B6380"/>
<path d="M40.0596 4.65701L40.0176 18.97L24.2646 28.126L24.3036 13.813L40.0596 4.65701Z" fill="#B18FB8"/>
<path d="M21.9733 18.577L21.9313 32.89L18.9883 31.192L19.0303 16.879L21.9733 18.577Z" fill="#7B6380"/>
<path d="M27.2467 15.511L27.2047 29.824L21.9307 32.89L21.9727 18.577L27.2467 15.511Z" fill="#B18FB8"/>
<path d="M14.3957 19.57L14.3567 33.886L8.22168 30.343L8.26068 16.03L14.3957 19.57Z" fill="#7B6380"/>
<path d="M19.0295 16.879L18.9875 31.192L14.3555 33.886L14.3945 19.57L19.0295 16.879Z" fill="#B18FB8"/>
<path d="M24.3048 13.813L27.2478 15.511L21.9738 18.577L19.0308 16.879L14.3958 19.57L8.2608 16.03L12.8958 13.336L0.841797 6.376L5.7618 3.517L33.2088 0.699997L40.0608 4.657L24.3048 13.813ZM18.6018 10.519L27.6558 5.257L12.5748 7.039L18.6018 10.519Z" fill="#C59FCE"/>
</g>
<defs>
<clipPath id="clip0_1074_4003">
<rect width="39.261" height="33.186" fill="white" transform="translate(0.799805 0.699997)"/>
</clipPath>
</defs>
</svg>
