<svg width="36" height="35" viewBox="0 0 36 35" fill="none" xmlns="http://www.w3.org/2000/svg">
<g clip-path="url(#clip0_1074_4022)">
<mask id="mask0_1074_4022" style="mask-type:luminance" maskUnits="userSpaceOnUse" x="35" y="7" width="1" height="17">
<path d="M35.5301 7.91501L35.4881 22.231C35.4881 22.624 35.4191 23.023 35.2871 23.422L35.3291 9.10601C35.4611 8.70701 35.5271 8.31101 35.5301 7.91501Z" fill="white"/>
</mask>
<g mask="url(#mask0_1074_4022)">
<path d="M35.5303 7.91501L35.4883 22.231C35.4883 22.261 35.4883 22.294 35.4883 22.324L35.5303 8.00801C35.5303 7.97801 35.5303 7.94801 35.5303 7.91501Z" fill="#856B8B"/>
<path d="M35.5271 8.008L35.4851 22.324C35.4791 22.528 35.4551 22.732 35.4131 22.939L35.4551 8.623C35.4971 8.419 35.5211 8.212 35.5271 8.008Z" fill="#896F8F"/>
<path d="M35.4581 8.62302L35.4161 22.939C35.3831 23.101 35.3411 23.263 35.2871 23.425L35.3291 9.10902C35.3831 8.94702 35.4251 8.78502 35.4581 8.62302Z" fill="#8E7394"/>
</g>
<mask id="mask1_1074_4022" style="mask-type:luminance" maskUnits="userSpaceOnUse" x="8" y="4" width="20" height="24">
<path d="M27.1432 7.954L27.1012 22.27C27.1042 21.571 26.5402 20.896 25.4122 20.245C23.7622 19.291 22.0252 19.039 20.2042 19.489C18.3772 19.936 16.2742 20.86 13.8712 22.255C12.2542 23.194 11.0122 24.025 10.1482 24.751C9.28121 25.474 8.81621 26.197 8.74721 26.917C8.74421 26.959 8.74121 26.998 8.74121 27.04L8.78321 12.724C8.78321 12.682 8.78621 12.643 8.78921 12.601C8.85521 11.881 9.32321 11.158 10.1902 10.435C11.0542 9.709 12.2962 8.878 13.9132 7.939C16.3162 6.544 18.4192 5.623 20.2462 5.173C22.0672 4.723 23.8042 4.975 25.4542 5.929C26.5822 6.58 27.1462 7.255 27.1432 7.954Z" fill="white"/>
</mask>
<g mask="url(#mask1_1074_4022)">
<path d="M27.143 7.95401L27.101 22.27C27.104 21.571 26.54 20.896 25.412 20.245C25.07 20.047 24.728 19.882 24.377 19.744L24.419 5.42801C24.767 5.56601 25.112 5.73101 25.454 5.92901C26.582 6.58001 27.146 7.25501 27.143 7.95401Z" fill="#77607C"/>
<path d="M24.4223 5.42801L24.3803 19.744C24.1673 19.66 23.9543 19.588 23.7383 19.525L23.7803 5.20901C23.9963 5.27201 24.2093 5.34401 24.4223 5.42801Z" fill="#7C6481"/>
<path d="M23.7797 5.209L23.7377 19.525C23.5787 19.48 23.4197 19.441 23.2607 19.408L23.3027 5.092C23.4617 5.125 23.6207 5.164 23.7797 5.209Z" fill="#806886"/>
<path d="M23.3026 5.092L23.2606 19.408C23.1256 19.381 22.9876 19.357 22.8496 19.336L22.8916 5.02C23.0296 5.041 23.1676 5.065 23.3026 5.092Z" fill="#856B8B"/>
<path d="M22.8927 5.02L22.8507 19.336C22.7247 19.318 22.5987 19.303 22.4727 19.294L22.5147 4.978C22.6407 4.99 22.7667 5.002 22.8927 5.02Z" fill="#896F8F"/>
<path d="M22.5147 4.978L22.4727 19.294C22.3467 19.285 22.2237 19.276 22.0977 19.273L22.1397 4.957C22.2627 4.963 22.3887 4.969 22.5147 4.978Z" fill="#8E7394"/>
<path d="M22.1362 4.95699L22.0942 19.273C21.9622 19.27 21.8302 19.27 21.6982 19.276L21.7402 4.95999C21.8752 4.95699 22.0072 4.95399 22.1362 4.95699Z" fill="#937699"/>
<path d="M21.7399 4.95999L21.6979 19.276C21.5509 19.282 21.4009 19.291 21.2539 19.306L21.2959 4.98999C21.4459 4.97499 21.5929 4.96599 21.7399 4.95999Z" fill="#977A9E"/>
<path d="M21.2966 4.99001L21.2546 19.306C21.0656 19.324 20.8766 19.351 20.6846 19.387L20.7266 5.07101C20.9186 5.03501 21.1076 5.00801 21.2966 4.99001Z" fill="#9C7EA3"/>
<path d="M20.7294 5.071L20.6874 19.387C20.5284 19.417 20.3694 19.45 20.2074 19.489C19.8774 19.57 19.5414 19.666 19.1934 19.777L19.2354 5.461C19.5834 5.35 19.9194 5.254 20.2494 5.173C20.4084 5.134 20.5704 5.098 20.7294 5.071Z" fill="#A082A7"/>
<path d="M19.2357 5.46101L19.1937 19.777C17.6127 20.284 15.8427 21.109 13.8747 22.255C13.6047 22.411 13.3467 22.567 13.0977 22.717L13.1397 8.40101C13.3887 8.25101 13.6467 8.09501 13.9167 7.93901C15.8847 6.79301 17.6547 5.96801 19.2357 5.46101Z" fill="#A585AC"/>
<path d="M13.1388 8.39801L13.0968 22.714C11.8548 23.467 10.8708 24.145 10.1508 24.748C10.0578 24.826 9.96779 24.904 9.88379 24.982L9.92579 10.666C10.0098 10.588 10.0998 10.51 10.1928 10.432C10.9128 9.82901 11.8938 9.15101 13.1388 8.39801Z" fill="#A082A7"/>
<path d="M9.92666 10.669L9.88466 24.985C9.67766 25.177 9.49766 25.369 9.34766 25.561L9.38966 11.245C9.53966 11.053 9.71966 10.861 9.92666 10.669Z" fill="#9C7EA3"/>
<path d="M9.38873 11.245L9.34673 25.561C9.23273 25.705 9.13673 25.849 9.05273 25.993L9.09473 11.677C9.17573 11.533 9.27473 11.389 9.38873 11.245Z" fill="#977A9E"/>
<path d="M9.09491 11.677L9.05291 25.993C8.98391 26.116 8.92391 26.239 8.87891 26.365L8.92091 12.049C8.96891 11.926 9.02591 11.8 9.09491 11.677Z" fill="#937699"/>
<path d="M8.92127 12.049L8.87927 26.365C8.83727 26.479 8.80427 26.593 8.78027 26.707L8.82227 12.391C8.84627 12.277 8.87927 12.163 8.92127 12.049Z" fill="#8E7394"/>
<path d="M8.82214 12.391L8.78014 26.707C8.76514 26.776 8.75614 26.845 8.75014 26.917C8.74714 26.947 8.74414 26.974 8.74414 27.004L8.78614 12.688C8.78614 12.658 8.78914 12.631 8.79214 12.601C8.79814 12.529 8.81014 12.46 8.82214 12.391Z" fill="#896F8F"/>
<path d="M8.78614 12.685L8.74414 27.001C8.74414 27.013 8.74414 27.025 8.74414 27.034L8.78614 12.718C8.78614 12.709 8.78614 12.697 8.78614 12.685Z" fill="#856B8B"/>
</g>
<mask id="mask2_1074_4022" style="mask-type:luminance" maskUnits="userSpaceOnUse" x="0" y="9" width="36" height="26">
<path d="M0.299823 27.001L0.341823 12.685C0.335823 14.533 1.79082 16.3 4.70982 17.986C8.24682 20.029 11.9908 20.827 15.9358 20.377C19.8748 19.927 23.9188 18.502 28.0528 16.099C32.1388 13.726 34.5628 11.392 35.3278 9.10901L35.2858 23.425C34.5208 25.708 32.0968 28.042 28.0108 30.415C23.8768 32.818 19.8328 34.243 15.8938 34.693C11.9488 35.14 8.20782 34.342 4.66782 32.302C1.75182 30.613 0.293823 28.849 0.299823 27.001Z" fill="white"/>
</mask>
<g mask="url(#mask2_1074_4022)">
<path d="M35.3278 9.10901L35.2858 23.425C35.2648 23.488 35.2408 23.554 35.2168 23.617L35.2588 9.30101C35.2828 9.23801 35.3038 9.17201 35.3278 9.10901Z" fill="#8E7394"/>
<path d="M35.2591 9.30103L35.2171 23.617C35.1031 23.92 34.9591 24.223 34.7881 24.529L34.8301 10.213C35.0011 9.90703 35.1451 9.60403 35.2591 9.30103Z" fill="#937699"/>
<path d="M34.8297 10.213L34.7877 24.529C34.5837 24.889 34.3377 25.252 34.0527 25.615L34.0947 11.299C34.3797 10.936 34.6257 10.573 34.8297 10.213Z" fill="#977A9E"/>
<path d="M34.0949 11.299L34.0529 25.615C33.6689 26.104 33.2069 26.596 32.6729 27.091L32.7149 12.775C33.2489 12.283 33.7109 11.791 34.0949 11.299Z" fill="#9C7EA3"/>
<path d="M32.7158 12.775L32.6738 27.091C31.6178 28.069 30.2708 29.053 28.6328 30.046L28.6748 15.73C30.3128 14.737 31.6598 13.753 32.7158 12.775Z" fill="#A082A7"/>
<path d="M28.6746 15.73L28.6326 30.046C28.4286 30.169 28.2216 30.292 28.0116 30.415C25.6626 31.78 23.3466 32.83 21.0576 33.562L21.0996 19.246C23.3856 18.511 25.7046 17.464 28.0536 16.099C28.2666 15.976 28.4736 15.853 28.6746 15.73Z" fill="#A585AC"/>
<path d="M21.0998 19.246L21.0578 33.562C19.8668 33.946 18.6818 34.243 17.5088 34.453L17.5508 20.14C18.7238 19.927 19.9088 19.63 21.0998 19.246Z" fill="#A082A7"/>
<path d="M17.55 20.14L17.508 34.456C16.968 34.552 16.431 34.633 15.894 34.693C15.804 34.702 15.717 34.714 15.627 34.72L15.669 20.404C15.759 20.395 15.846 20.386 15.936 20.377C16.473 20.317 17.01 20.236 17.55 20.14Z" fill="#9C7EA3"/>
<path d="M15.6691 20.404L15.6301 34.72C15.2221 34.762 14.8141 34.789 14.4121 34.801L14.4541 20.485C14.8531 20.473 15.2611 20.446 15.6691 20.404Z" fill="#977A9E"/>
<path d="M14.4509 20.488L14.4089 34.804C14.0519 34.816 13.6949 34.819 13.3379 34.81L13.3799 20.494C13.7339 20.5 14.0909 20.5 14.4509 20.488Z" fill="#937699"/>
<path d="M13.3801 20.491L13.3381 34.807C12.9991 34.798 12.6631 34.78 12.3271 34.753L12.3691 20.437C12.7051 20.467 13.0411 20.485 13.3801 20.491Z" fill="#8E7394"/>
<path d="M12.3695 20.437L12.3275 34.753C11.9885 34.726 11.6495 34.687 11.3135 34.639L11.3555 20.323C11.6915 20.371 12.0305 20.41 12.3695 20.437Z" fill="#896F8F"/>
<path d="M11.3545 20.326L11.3125 34.642C10.9495 34.591 10.5895 34.528 10.2295 34.453L10.2715 20.137C10.6315 20.209 10.9915 20.272 11.3545 20.326Z" fill="#856B8B"/>
<path d="M10.2715 20.137L10.2295 34.45C9.80952 34.363 9.39252 34.261 8.97852 34.144L9.02052 19.828C9.43452 19.948 9.85152 20.05 10.2715 20.137Z" fill="#806886"/>
<path d="M9.02159 19.828L8.97959 34.144C8.41859 33.985 7.86059 33.796 7.30859 33.577L7.35059 19.261C7.90559 19.48 8.46059 19.669 9.02159 19.828Z" fill="#7C6481"/>
<path d="M7.35282 19.264L7.31082 33.58C6.41682 33.229 5.53782 32.803 4.67082 32.302C1.75182 30.613 0.293823 28.849 0.299823 27.001L0.341823 12.685C0.335823 14.533 1.79082 16.3 4.70982 17.986C5.57982 18.487 6.45882 18.913 7.35282 19.264Z" fill="#77607C"/>
</g>
<path d="M35.3276 9.109C34.5626 11.392 32.1386 13.726 28.0526 16.099C23.9186 18.502 19.8746 19.927 15.9356 20.377C11.9906 20.824 8.24964 20.026 4.70964 17.986C1.16664 15.94 -0.222364 13.774 0.542636 11.491C1.30464 9.205 3.75264 6.862 7.88664 4.459C11.9756 2.083 15.9896 0.67 19.9346 0.223C23.8736 -0.227 27.6176 0.571 31.1606 2.614C34.6976 4.657 36.0866 6.823 35.3276 9.109ZM17.7266 14.785C18.9716 14.281 20.4056 13.561 22.0226 12.619C24.4256 11.224 26.0036 10 26.7746 8.941C27.5426 7.882 27.1016 6.88 25.4516 5.926C23.8016 4.972 22.0646 4.72 20.2436 5.17C18.4166 5.617 16.3136 6.541 13.9106 7.936C12.2936 8.875 11.0516 9.706 10.1876 10.432C9.32064 11.155 8.85564 11.878 8.78664 12.598C8.71464 13.315 9.26064 14.008 10.4066 14.668C11.5556 15.331 12.7466 15.643 13.9886 15.601C15.2336 15.559 16.4786 15.286 17.7266 14.785Z" fill="#C59FCE"/>
</g>
<defs>
<clipPath id="clip0_1074_4022">
<rect width="35.229" height="34.713" fill="white" transform="translate(0.299805 0.100006)"/>
</clipPath>
</defs>
</svg>
