<svg width="169" height="98" viewBox="0 0 169 98" fill="none" xmlns="http://www.w3.org/2000/svg">
<g clip-path="url(#clip0_1074_4163)">
<mask id="mask0_1074_4163" style="mask-type:luminance" maskUnits="userSpaceOnUse" x="0" y="0" width="169" height="98">
<path d="M0.498047 15.666L26.94 0.300003L168.321 81.927L141.879 97.293L0.498047 15.666Z" fill="white"/>
</mask>
<g mask="url(#mask0_1074_4163)">
<path d="M23.1014 7.929L27.8654 5.16L30.4004 6.624C31.2914 7.137 31.7474 7.641 31.7654 8.133C31.7864 8.625 31.4204 9.093 30.6614 9.534C29.9024 9.975 29.0984 10.191 28.2464 10.179C27.3974 10.17 26.5274 9.906 25.6364 9.393L23.1014 7.929ZM34.4864 4.656L26.9414 0.300003L7.94238 11.34L12.6014 14.028L19.4204 10.065L22.3094 11.733C23.8694 12.633 25.4594 13.227 27.0704 13.509C28.6814 13.794 30.1994 13.815 31.6184 13.581C33.0344 13.344 34.2974 12.909 35.3984 12.267C36.5864 11.577 37.3814 10.812 37.7744 9.972C38.1674 9.135 38.0984 8.259 37.5674 7.347C37.0394 6.435 36.0134 5.538 34.4864 4.656Z" fill="url(#paint0_linear_1074_4163)"/>
<path d="M35.8936 23.058C34.9696 22.524 34.5196 21.873 34.5526 21.108C34.5856 20.343 35.1796 19.623 36.3346 18.954C37.4896 18.282 38.7166 17.943 40.0216 17.931C41.3236 17.919 42.4396 18.183 43.3666 18.717C44.2936 19.251 44.7466 19.899 44.7226 20.658C44.7016 21.42 44.1106 22.134 42.9586 22.803C41.8036 23.475 40.5706 23.817 39.2566 23.835C37.9396 23.853 36.8206 23.595 35.8936 23.058ZM46.0336 15.588C44.7796 14.865 43.3306 14.394 41.6806 14.172C40.0306 13.953 38.3266 14.013 36.5656 14.352C34.7986 14.694 33.1426 15.315 31.5916 16.215C30.0376 17.118 28.9666 18.081 28.3786 19.11C27.7876 20.136 27.6766 21.129 28.0546 22.089C28.4296 23.049 29.2366 23.886 30.4726 24.597C31.5436 25.215 32.7016 25.632 33.9406 25.848C35.1826 26.064 36.3826 26.097 37.5376 25.95L35.4016 27.192L40.0606 29.88L55.1626 21.105L50.5036 18.417L48.3646 19.659C48.6346 18.999 48.5806 18.309 48.2026 17.592C47.8276 16.875 47.1076 16.206 46.0336 15.588Z" fill="url(#paint1_linear_1074_4163)"/>
<path d="M54.3906 33.738C53.4636 33.204 53.0166 32.553 53.0496 31.788C53.0826 31.023 53.6736 30.303 54.8316 29.634C55.9866 28.962 57.2136 28.623 58.5186 28.611C59.8206 28.599 60.9366 28.863 61.8636 29.397C62.7876 29.931 63.2406 30.579 63.2196 31.338C63.1986 32.1 62.6076 32.814 61.4556 33.483C60.3006 34.155 59.0676 34.497 57.7536 34.515C56.4336 34.533 55.3146 34.272 54.3906 33.738ZM64.5306 26.268C63.2766 25.545 61.8276 25.074 60.1776 24.852C58.5276 24.633 56.8236 24.693 55.0596 25.032C53.2956 25.374 51.6366 25.995 50.0886 26.895C48.5346 27.798 47.4636 28.761 46.8726 29.79C46.2816 30.816 46.1736 31.812 46.5516 32.769C46.9266 33.729 47.7426 34.569 48.9966 35.295C50.0676 35.913 51.2226 36.324 52.4646 36.531C53.7066 36.735 54.9066 36.762 56.0646 36.615L53.9256 37.857C52.7166 38.559 51.5526 38.904 50.4276 38.895C49.3056 38.883 48.2646 38.601 47.3016 38.046C46.5036 37.584 45.9966 37.101 45.7866 36.591C45.5736 36.081 45.6846 35.619 46.1166 35.199L41.5146 32.541C39.9096 33.705 39.2766 34.998 39.6216 36.417C39.9636 37.839 41.2626 39.198 43.5156 40.5C45.2046 41.475 46.9506 42.096 48.7536 42.363C50.5566 42.63 52.2996 42.594 53.9796 42.261C55.6626 41.925 57.1986 41.355 58.5876 40.548L73.6626 31.788L69.0036 29.1L66.8646 30.342C67.1316 29.682 67.0806 28.992 66.7026 28.275C66.3246 27.555 65.6016 26.886 64.5306 26.268Z" fill="url(#paint2_linear_1074_4163)"/>
<path d="M74.6777 39.432C75.6347 39.024 76.6038 38.844 77.5938 38.889C78.5778 38.937 79.4627 39.186 80.2427 39.636C81.0617 40.107 81.5057 40.638 81.5837 41.226C81.6587 41.811 81.2987 42.336 80.5067 42.798L74.6777 39.432ZM84.0077 37.512C82.5017 36.642 80.8517 36.057 79.0577 35.751C77.2637 35.448 75.4577 35.448 73.6427 35.76C71.8217 36.069 70.1297 36.681 68.5607 37.593C66.9917 38.505 65.9447 39.492 65.4287 40.551C64.9097 41.61 64.9157 42.657 65.4467 43.695C65.9777 44.733 66.9857 45.681 68.4767 46.542C69.7127 47.256 71.0537 47.769 72.5057 48.084C73.9517 48.399 75.4067 48.516 76.8647 48.438C78.3197 48.36 79.6727 48.105 80.9207 47.676L75.9647 44.814C74.5367 45.117 73.2407 44.934 72.0797 44.262C71.2997 43.812 70.8887 43.287 70.8497 42.69C70.8107 42.093 71.2217 41.499 72.0917 40.914L82.6337 47.001C83.1557 46.761 83.6327 46.512 84.0677 46.26C85.5827 45.381 86.5877 44.424 87.0767 43.389C87.5717 42.357 87.5507 41.331 87.0197 40.314C86.4797 39.294 85.4777 38.361 84.0077 37.512Z" fill="url(#paint3_linear_1074_4163)"/>
<path d="M115.201 51.258L103.486 44.493L84.4873 55.536L96.2023 62.298L99.9103 60.144L92.8543 56.07L97.0213 53.649L103.258 57.252L106.834 55.173L100.594 51.573L104.437 49.338L111.493 53.412L115.201 51.258Z" fill="url(#paint4_linear_1074_4163)"/>
<path d="M123.916 60.615C122.917 60.039 121.771 59.655 120.475 59.46C119.179 59.265 117.844 59.253 116.47 59.421L118.987 57.957L114.328 55.269L99.2256 64.044L103.885 66.732L110.893 62.658C112.138 61.935 113.299 61.596 114.376 61.644C115.453 61.692 116.575 62.052 117.736 62.721L119.017 63.459L123.916 60.615Z" fill="url(#paint5_linear_1074_4163)"/>
<path d="M135.574 67.347C134.575 66.771 133.429 66.387 132.133 66.192C130.837 65.997 129.502 65.985 128.128 66.153L130.645 64.689L125.986 62.001L110.884 70.776L115.543 73.464L122.551 69.39C123.796 68.667 124.957 68.328 126.034 68.376C127.111 68.424 128.233 68.784 129.394 69.453L130.672 70.191L135.574 67.347Z" fill="url(#paint6_linear_1074_4163)"/>
<path d="M133.252 79.299C132.361 78.786 131.947 78.168 132.007 77.451C132.064 76.731 132.697 76.023 133.909 75.318C135.133 74.607 136.369 74.235 137.611 74.211C138.85 74.187 139.924 74.433 140.833 74.958C141.724 75.471 142.147 76.095 142.105 76.821C142.063 77.55 141.439 78.267 140.23 78.969C139.021 79.671 137.776 80.031 136.501 80.046C135.226 80.061 134.14 79.812 133.252 79.299ZM144.835 72.63C143.347 71.772 141.685 71.178 139.855 70.854C138.025 70.53 136.171 70.512 134.302 70.8C132.43 71.088 130.72 71.685 129.169 72.585C127.6 73.497 126.565 74.49 126.076 75.564C125.587 76.638 125.617 77.703 126.175 78.756C126.733 79.809 127.756 80.766 129.247 81.627C130.735 82.485 132.4 83.082 134.239 83.412C136.078 83.742 137.938 83.766 139.819 83.484C141.7 83.202 143.416 82.608 144.97 81.708C146.521 80.808 147.541 79.812 148.033 78.729C148.525 77.643 148.489 76.572 147.922 75.513C147.352 74.451 146.326 73.491 144.835 72.63Z" fill="url(#paint7_linear_1074_4163)"/>
<path d="M164.587 84.096C163.588 83.52 162.439 83.133 161.143 82.938C159.85 82.743 158.512 82.731 157.138 82.899L159.655 81.435L154.999 78.75L139.897 87.525L144.556 90.213L151.564 86.139C152.809 85.416 153.97 85.077 155.047 85.125C156.121 85.173 157.243 85.53 158.407 86.202L159.688 86.943L164.587 84.096Z" fill="url(#paint8_linear_1074_4163)"/>
</g>
</g>
<defs>
<linearGradient id="paint0_linear_1074_4163" x1="9.44652" y1="-2.9604" x2="41.0208" y2="17.2097" gradientUnits="userSpaceOnUse">
<stop stop-color="#D146FF"/>
<stop offset="0.463542" stop-color="#F9BED4"/>
<stop offset="1" stop-color="white"/>
</linearGradient>
<linearGradient id="paint1_linear_1074_4163" x1="29.2013" y1="10.2818" x2="61.4329" y2="26.4953" gradientUnits="userSpaceOnUse">
<stop stop-color="#D146FF"/>
<stop offset="0.463542" stop-color="#F9BED4"/>
<stop offset="1" stop-color="white"/>
</linearGradient>
<linearGradient id="paint2_linear_1074_4163" x1="41.2369" y1="20.4916" x2="79.6884" y2="41.9655" gradientUnits="userSpaceOnUse">
<stop stop-color="#D146FF"/>
<stop offset="0.463542" stop-color="#F9BED4"/>
<stop offset="1" stop-color="white"/>
</linearGradient>
<linearGradient id="paint3_linear_1074_4163" x1="66.1634" y1="32.4524" x2="92.5389" y2="45.7598" gradientUnits="userSpaceOnUse">
<stop stop-color="#D146FF"/>
<stop offset="0.463542" stop-color="#F9BED4"/>
<stop offset="1" stop-color="white"/>
</linearGradient>
<linearGradient id="paint4_linear_1074_4163" x1="86.023" y1="40.2643" x2="122.253" y2="58.4835" gradientUnits="userSpaceOnUse">
<stop stop-color="#D146FF"/>
<stop offset="0.463542" stop-color="#F9BED4"/>
<stop offset="1" stop-color="white"/>
</linearGradient>
<linearGradient id="paint5_linear_1074_4163" x1="100.46" y1="52.5465" x2="126.631" y2="68.9793" gradientUnits="userSpaceOnUse">
<stop stop-color="#D146FF"/>
<stop offset="0.463542" stop-color="#F9BED4"/>
<stop offset="1" stop-color="white"/>
</linearGradient>
<linearGradient id="paint6_linear_1074_4163" x1="112.118" y1="59.2785" x2="138.29" y2="75.7113" gradientUnits="userSpaceOnUse">
<stop stop-color="#D146FF"/>
<stop offset="0.463542" stop-color="#F9BED4"/>
<stop offset="1" stop-color="white"/>
</linearGradient>
<linearGradient id="paint7_linear_1074_4163" x1="126.864" y1="67.4897" x2="153.539" y2="80.9502" gradientUnits="userSpaceOnUse">
<stop stop-color="#D146FF"/>
<stop offset="0.463542" stop-color="#F9BED4"/>
<stop offset="1" stop-color="white"/>
</linearGradient>
<linearGradient id="paint8_linear_1074_4163" x1="141.132" y1="76.0275" x2="167.303" y2="92.4603" gradientUnits="userSpaceOnUse">
<stop stop-color="#D146FF"/>
<stop offset="0.463542" stop-color="#F9BED4"/>
<stop offset="1" stop-color="white"/>
</linearGradient>
<clipPath id="clip0_1074_4163">
<rect width="167.823" height="96.993" fill="white" transform="translate(0.5 0.300003)"/>
</clipPath>
</defs>
</svg>
