<svg width="77" height="83" viewBox="0 0 77 83" fill="none" xmlns="http://www.w3.org/2000/svg">
<g clip-path="url(#clip0_1074_3206)">
<path d="M45.6503 82.7789L0.349052 56.892L30.4107 39.5644L75.7119 65.4514L45.6503 82.7789Z" fill="#8569B2" stroke="#553B89" stroke-width="0.3" stroke-miterlimit="10"/>
<path d="M3.31152 46.6207L1.72494 45.7021L0.305361 46.579L1.80844 47.4558L3.31152 46.6207Z" fill="url(#paint0_linear_1074_3206)"/>
<path d="M3.31152 46.6207V56.9755L1.80844 57.8523V47.4558L3.31152 46.6207Z" fill="url(#paint1_linear_1074_3206)"/>
<path d="M0.304539 46.579V57.0172L1.80762 57.8523V47.4558L0.304539 46.579Z" fill="url(#paint2_linear_1074_3206)"/>
<path d="M3.31152 36.3912L1.72494 35.4726L0.305361 36.3494L1.80844 37.2263L3.31152 36.3912Z" fill="url(#paint3_linear_1074_3206)"/>
<path d="M3.31152 36.3912V46.746L1.80844 47.6228V37.2263L3.31152 36.3912Z" fill="url(#paint4_linear_1074_3206)"/>
<path d="M0.304539 36.3494V46.7877L1.80762 47.6228V37.2263L0.304539 36.3494Z" fill="url(#paint5_linear_1074_3206)"/>
<path d="M3.31152 25.9529L1.72494 25.0343L0.305361 25.9111L1.80844 26.788L3.31152 25.9529Z" fill="url(#paint6_linear_1074_3206)"/>
<path d="M3.31152 25.9529V36.3077L1.80844 37.1845V26.788L3.31152 25.9529Z" fill="url(#paint7_linear_1074_3206)"/>
<path d="M0.304539 25.9112V36.3494L1.80762 37.1845V26.788L0.304539 25.9112Z" fill="url(#paint8_linear_1074_3206)"/>
<path d="M30.6611 32.0071L29.0745 31.0885L27.655 31.9654L29.158 32.8422L30.6611 32.0071Z" fill="url(#paint9_linear_1074_3206)"/>
<path d="M30.6611 32.0071V42.3619L29.158 43.2387V32.8422L30.6611 32.0071Z" fill="url(#paint10_linear_1074_3206)"/>
<path d="M27.6541 31.9654V42.4036L29.1572 43.2387V32.8422L27.6541 31.9654Z" fill="url(#paint11_linear_1074_3206)"/>
<path d="M30.6611 21.7776L29.0745 20.859L27.655 21.7358L29.158 22.6127L30.6611 21.7776Z" fill="url(#paint12_linear_1074_3206)"/>
<path d="M30.6611 21.7776V32.1324L29.158 33.0092V22.6127L30.6611 21.7776Z" fill="url(#paint13_linear_1074_3206)"/>
<path d="M27.6541 21.7359V32.1741L29.1572 33.0092V22.6127L27.6541 21.7359Z" fill="url(#paint14_linear_1074_3206)"/>
<path d="M30.6611 11.3393L29.0745 10.4208L27.655 11.2976L29.158 12.1744L30.6611 11.3393Z" fill="url(#paint15_linear_1074_3206)"/>
<path d="M30.6611 11.3393V21.6941L29.158 22.5709V12.1744L30.6611 11.3393Z" fill="url(#paint16_linear_1074_3206)"/>
<path d="M27.6541 11.2976V21.7359L29.1572 22.5709V12.1744L27.6541 11.2976Z" fill="url(#paint17_linear_1074_3206)"/>
<path d="M17.9248 54.7626L16.3382 53.844L14.9186 54.7208L16.4217 55.5976L17.9248 54.7626Z" fill="url(#paint18_linear_1074_3206)"/>
<path d="M17.9248 54.7626V65.1173L16.4217 65.9942V55.5976L17.9248 54.7626Z" fill="url(#paint19_linear_1074_3206)"/>
<path d="M14.9178 54.7208V65.1591L16.4209 65.9942V55.5976L14.9178 54.7208Z" fill="url(#paint20_linear_1074_3206)"/>
<path d="M9.99316 50.1697L8.40658 49.2512L6.987 50.128L8.49008 51.0048L9.99316 50.1697Z" fill="url(#paint21_linear_1074_3206)"/>
<path d="M9.99316 50.1697V60.5245L8.49008 61.4013V51.0048L9.99316 50.1697Z" fill="url(#paint22_linear_1074_3206)"/>
<path d="M6.98813 50.128V60.5663L8.49121 61.4013V51.0048L6.98813 50.128Z" fill="url(#paint23_linear_1074_3206)"/>
<path d="M45.6122 73.9586L0.310966 48.0716L30.3726 30.7441L75.6738 56.631L45.6122 73.9586Z" fill="#8569B2" stroke="#553B89" stroke-width="0.3" stroke-miterlimit="10"/>
<path d="M27.7383 50.796L26.1517 49.8775L24.7321 50.7543L26.2352 51.6311L27.7383 50.796Z" fill="url(#paint24_linear_1074_3206)"/>
<path d="M27.7383 50.796V61.1508L26.2352 62.0276V51.6311L27.7383 50.796Z" fill="url(#paint25_linear_1074_3206)"/>
<path d="M24.7313 50.7543V61.1925L26.2344 62.0276V51.6311L24.7313 50.7543Z" fill="url(#paint26_linear_1074_3206)"/>
<path d="M17.9248 45.9944L16.3382 45.0759L14.9186 45.9527L16.4217 46.8295L17.9248 45.9944Z" fill="url(#paint27_linear_1074_3206)"/>
<path d="M17.9248 45.9944V56.3492L16.4217 57.226V46.8295L17.9248 45.9944Z" fill="url(#paint28_linear_1074_3206)"/>
<path d="M14.9178 45.9527V56.3909L16.4209 57.226V46.8295L14.9178 45.9527Z" fill="url(#paint29_linear_1074_3206)"/>
<path d="M9.99316 41.1928L8.40658 40.2742L6.987 41.1511L8.49008 42.0279L9.99316 41.1928Z" fill="url(#paint30_linear_1074_3206)"/>
<path d="M9.99316 41.1928V51.5476L8.49008 52.4244V42.0279L9.99316 41.1928Z" fill="url(#paint31_linear_1074_3206)"/>
<path d="M6.98813 41.1511V51.5893L8.49121 52.4244V42.0279L6.98813 41.1511Z" fill="url(#paint32_linear_1074_3206)"/>
<path d="M45.6122 66.443L0.310966 40.5561L30.3726 23.2285L75.6738 49.1155L45.6122 66.443Z" fill="#8569B2" stroke="#553B89" stroke-width="0.3" stroke-miterlimit="10"/>
<path d="M35.0439 47.247L33.4574 46.3284L32.0378 47.2053L33.5409 48.0821L35.0439 47.247Z" fill="url(#paint33_linear_1074_3206)"/>
<path d="M35.0439 47.247V57.6018L33.5409 58.4786V48.0821L35.0439 47.247Z" fill="url(#paint34_linear_1074_3206)"/>
<path d="M32.037 47.2053V57.6435L33.54 58.4786V48.0821L32.037 47.2053Z" fill="url(#paint35_linear_1074_3206)"/>
<path d="M27.7383 44.1155L26.1517 43.197L24.7321 44.0738L26.2352 44.9506L27.7383 44.1155Z" fill="url(#paint36_linear_1074_3206)"/>
<path d="M27.7383 44.1155V54.4703L26.2352 55.3471V44.9506L27.7383 44.1155Z" fill="url(#paint37_linear_1074_3206)"/>
<path d="M24.7313 44.0738V54.5121L26.2344 55.3471V44.9506L24.7313 44.0738Z" fill="url(#paint38_linear_1074_3206)"/>
<path d="M17.9248 39.3139L16.3382 38.3954L14.9186 39.2722L16.4217 40.149L17.9248 39.3139Z" fill="url(#paint39_linear_1074_3206)"/>
<path d="M17.9248 39.3139V49.6687L16.4217 50.5455V40.149L17.9248 39.3139Z" fill="url(#paint40_linear_1074_3206)"/>
<path d="M14.9178 39.2722V49.7104L16.4209 50.5455V40.149L14.9178 39.2722Z" fill="url(#paint41_linear_1074_3206)"/>
<path d="M9.99316 34.5123L8.40658 33.5937L6.987 34.4706L8.49008 35.3474L9.99316 34.5123Z" fill="url(#paint42_linear_1074_3206)"/>
<path d="M9.99316 34.5123V44.8671L8.49008 45.7439V35.3474L9.99316 34.5123Z" fill="url(#paint43_linear_1074_3206)"/>
<path d="M6.98813 34.4706V44.9088L8.49121 45.7439V35.3474L6.98813 34.4706Z" fill="url(#paint44_linear_1074_3206)"/>
<path d="M45.7536 56.7876L0.727959 30.5353L30.7896 13.2078L76.0908 39.3035L45.7536 56.7876Z" fill="#8569B2" stroke="#553B89" stroke-width="0.3" stroke-miterlimit="10"/>
<path d="M75.752 29.2932L74.1654 28.3746L72.7458 29.2514L74.2489 30.1282L75.752 29.2932Z" fill="url(#paint45_linear_1074_3206)"/>
<path d="M75.752 29.2932V39.6479L74.2489 40.5248V30.1282L75.752 29.2932Z" fill="url(#paint46_linear_1074_3206)"/>
<path d="M72.745 29.2514V39.6897L74.248 40.5247V30.1282L72.745 29.2514Z" fill="url(#paint47_linear_1074_3206)"/>
<path d="M41.9326 16.5585L40.346 15.6399L38.9265 16.5167L40.4295 17.3935L41.9326 16.5585Z" fill="url(#paint48_linear_1074_3206)"/>
<path d="M41.9326 16.5585V26.9132L40.4295 27.79V17.3935L41.9326 16.5585Z" fill="url(#paint49_linear_1074_3206)"/>
<path d="M38.9256 16.5167V26.955L40.4287 27.7901V17.3935L38.9256 16.5167Z" fill="url(#paint50_linear_1074_3206)"/>
<path d="M24.6064 25.9529L23.0199 25.0343L21.6003 25.9111L23.1034 26.788L24.6064 25.9529Z" fill="url(#paint51_linear_1074_3206)"/>
<path d="M24.6064 25.9529V36.3077L23.1034 37.1845V26.788L24.6064 25.9529Z" fill="url(#paint52_linear_1074_3206)"/>
<path d="M21.6014 25.9112V36.3494L23.1045 37.1845V26.788L21.6014 25.9112Z" fill="url(#paint53_linear_1074_3206)"/>
<path d="M17.5078 20.7338L15.9212 19.8152L14.5016 20.692L16.0047 21.5688L17.5078 20.7338Z" fill="url(#paint54_linear_1074_3206)"/>
<path d="M17.5078 20.7338V31.0886L16.0047 31.9654V21.5688L17.5078 20.7338Z" fill="url(#paint55_linear_1074_3206)"/>
<path d="M14.5008 20.692V31.1303L16.0039 31.9654V21.5688L14.5008 20.692Z" fill="url(#paint56_linear_1074_3206)"/>
<path d="M32.7471 12.1744L31.1605 11.2558L29.7409 12.1326L31.244 13.0094L32.7471 12.1744Z" fill="url(#paint57_linear_1074_3206)"/>
<path d="M32.7471 12.1744V22.5291L31.244 23.406V13.0094L32.7471 12.1744Z" fill="url(#paint58_linear_1074_3206)"/>
<path d="M29.7401 12.1326V22.5709L31.2432 23.406V13.0094L29.7401 12.1326Z" fill="url(#paint59_linear_1074_3206)"/>
<path d="M38.5918 8.4166L37.0052 7.49803L35.5856 8.37485L37.0887 9.25166L38.5918 8.4166Z" fill="url(#paint60_linear_1074_3206)"/>
<path d="M38.5918 8.4166V18.7714L37.0887 19.6482V9.25166L38.5918 8.4166Z" fill="url(#paint61_linear_1074_3206)"/>
<path d="M35.5848 8.37485V18.8131L37.0879 19.6482V9.25166L35.5848 8.37485Z" fill="url(#paint62_linear_1074_3206)"/>
<path d="M46.5264 13.0094L44.9398 12.0909L43.5202 12.9677L45.0233 13.8445L46.5264 13.0094Z" fill="url(#paint63_linear_1074_3206)"/>
<path d="M46.5264 13.0094V23.3642L45.0233 24.241V13.8445L46.5264 13.0094Z" fill="url(#paint64_linear_1074_3206)"/>
<path d="M43.5213 12.9677V23.406L45.0244 24.241V13.8445L43.5213 12.9677Z" fill="url(#paint65_linear_1074_3206)"/>
<path d="M69.9072 25.9529L68.3206 25.0343L66.9011 25.9112L68.4041 26.788L69.9072 25.9529Z" fill="url(#paint66_linear_1074_3206)"/>
<path d="M69.9072 25.9529V36.3077L68.4041 37.1845V26.788L69.9072 25.9529Z" fill="url(#paint67_linear_1074_3206)"/>
<path d="M66.9002 25.9112V36.3494L68.4033 37.1845V26.788L66.9002 25.9112Z" fill="url(#paint68_linear_1074_3206)"/>
<path d="M47.3604 45.5769L45.7738 44.6583L44.3542 45.5351L45.8573 46.4119L47.3604 45.5769Z" fill="url(#paint69_linear_1074_3206)"/>
<path d="M47.3604 45.5769V55.9316L45.8573 56.8085V46.4119L47.3604 45.5769Z" fill="url(#paint70_linear_1074_3206)"/>
<path d="M44.3534 45.5351V55.9734L45.8564 56.8085V46.4119L44.3534 45.5351Z" fill="url(#paint71_linear_1074_3206)"/>
<path d="M67.6104 33.886L66.0238 32.9675L64.6042 33.8443L66.1073 34.7211L67.6104 33.886Z" fill="url(#paint72_linear_1074_3206)"/>
<path d="M67.6104 33.886V44.2408L66.1073 45.1176V34.7211L67.6104 33.886Z" fill="url(#paint73_linear_1074_3206)"/>
<path d="M64.6034 33.8443V44.2825L66.1064 45.1176V34.7211L64.6034 33.8443Z" fill="url(#paint74_linear_1074_3206)"/>
<path d="M55.085 40.984L53.4984 40.0655L52.0788 40.9423L53.5819 41.8191L55.085 40.984Z" fill="url(#paint75_linear_1074_3206)"/>
<path d="M55.085 40.984V51.3388L53.5819 52.2156V41.8191L55.085 40.984Z" fill="url(#paint76_linear_1074_3206)"/>
<path d="M52.078 40.9423V51.3806L53.5811 52.2156V41.8191L52.078 40.9423Z" fill="url(#paint77_linear_1074_3206)"/>
<path d="M41.9326 42.2366L40.346 41.3181L38.9265 42.1949L40.4295 43.0717L41.9326 42.2366Z" fill="url(#paint78_linear_1074_3206)"/>
<path d="M41.9326 42.2366V52.5914L40.4295 53.4682V43.0717L41.9326 42.2366Z" fill="url(#paint79_linear_1074_3206)"/>
<path d="M38.9256 42.1949V52.6332L40.4287 53.4682V43.0717L38.9256 42.1949Z" fill="url(#paint80_linear_1074_3206)"/>
<path d="M35.0439 38.4789L33.4574 37.5603L32.0378 38.4371L33.5409 39.3139L35.0439 38.4789Z" fill="url(#paint81_linear_1074_3206)"/>
<path d="M35.0439 38.4789V48.8336L33.5409 49.7104V39.3139L35.0439 38.4789Z" fill="url(#paint82_linear_1074_3206)"/>
<path d="M32.037 38.4371V48.8754L33.54 49.7104V39.3139L32.037 38.4371Z" fill="url(#paint83_linear_1074_3206)"/>
<path d="M27.7383 34.0948L26.1517 33.1762L24.7321 34.053L26.2352 34.9298L27.7383 34.0948Z" fill="url(#paint84_linear_1074_3206)"/>
<path d="M27.7383 34.0948V44.4495L26.2352 45.3263V34.9298L27.7383 34.0948Z" fill="url(#paint85_linear_1074_3206)"/>
<path d="M24.7313 34.053V44.4913L26.2344 45.3263V34.9298L24.7313 34.053Z" fill="url(#paint86_linear_1074_3206)"/>
<path d="M17.9248 29.0844L16.3382 28.1658L14.9186 29.0427L16.4217 29.9195L17.9248 29.0844Z" fill="url(#paint87_linear_1074_3206)"/>
<path d="M17.9248 29.0844V39.4392L16.4217 40.316V29.9195L17.9248 29.0844Z" fill="url(#paint88_linear_1074_3206)"/>
<path d="M14.9178 29.0426V39.4809L16.4209 40.316V29.9195L14.9178 29.0426Z" fill="url(#paint89_linear_1074_3206)"/>
<path d="M9.99316 24.074L8.40658 23.1554L6.987 24.0323L8.49008 24.9091L9.99316 24.074Z" fill="url(#paint90_linear_1074_3206)"/>
<path d="M9.99316 24.074V34.4288L8.49008 35.3056V24.9091L9.99316 24.074Z" fill="url(#paint91_linear_1074_3206)"/>
<path d="M6.98813 24.0323V34.4705L8.49121 35.3056V24.9091L6.98813 24.0323Z" fill="url(#paint92_linear_1074_3206)"/>
<path d="M3.31152 15.7234L1.72494 14.8048L0.305361 15.6816L1.80844 16.5585L3.31152 15.7234Z" fill="url(#paint93_linear_1074_3206)"/>
<path d="M3.31152 15.7234V26.0782L1.80844 26.955V16.5585L3.31152 15.7234Z" fill="url(#paint94_linear_1074_3206)"/>
<path d="M0.304539 15.6816V26.1199L1.80762 26.955V16.5585L0.304539 15.6816Z" fill="url(#paint95_linear_1074_3206)"/>
<path d="M30.6611 1.31857L29.0745 0.400002L27.655 1.27682L29.158 2.15363L30.6611 1.31857Z" fill="url(#paint96_linear_1074_3206)"/>
<path d="M30.6611 1.31857V11.6733L29.158 12.5502V2.15363L30.6611 1.31857Z" fill="url(#paint97_linear_1074_3206)"/>
<path d="M27.6541 1.27682V11.7151L29.1572 12.5502V2.15363L27.6541 1.27682Z" fill="url(#paint98_linear_1074_3206)"/>
<path d="M45.8584 56.892L38.343 52.7167V61.0673L30.8276 56.892V65.6601L23.3122 61.0673V70.0442L45.6496 82.7789L45.8584 56.892Z" fill="#573982"/>
<path d="M45.859 56.892L75.7119 39.5644V65.4514L45.6503 82.7789L45.859 56.892ZM68.7101 67.6246L73.3132 64.967L73.2965 59.679L68.6954 62.3366L68.7101 67.6246ZM68.7101 60.2134L73.3132 57.5559L73.2965 52.2678L68.6954 54.9254L68.7101 60.2134ZM68.7101 52.8023L73.3132 50.1447L73.2965 44.8566L68.6954 47.5142L68.7101 52.8023ZM62.1299 71.4221L66.7331 68.7666L66.7164 63.4785L62.1153 66.134L62.1299 71.4221ZM62.1299 64.0109L66.7331 61.3554L66.7164 56.0674L62.1153 58.7228L62.1299 64.0109ZM62.1299 56.5997L66.7331 53.9442L66.7164 48.6562L62.1153 51.3117L62.1299 56.5997ZM55.5497 75.2216L60.1529 72.564L60.1362 67.276L55.5351 69.9336L55.5497 75.2216ZM55.5497 67.8104L60.1529 65.1528L60.1362 59.8648L55.5351 62.5224L55.5497 67.8104ZM55.5497 60.3992L60.1529 57.7417L60.1362 52.4536L55.5351 55.1112L55.5497 60.3992ZM48.9696 79.0211L53.5728 76.3635L53.5561 71.0755L48.955 73.7331L48.9696 79.0211ZM48.9696 71.61L53.5728 68.9524L53.5561 63.6643L48.955 66.3219L48.9696 71.61ZM48.9696 64.1988L53.5728 61.5412L53.5561 56.2532L48.955 58.9107L48.9696 64.1988Z" fill="#422369"/>
<path d="M45.2327 12.0074L75.7119 29.3349L45.4415 46.6625L15.1711 29.3349L23.2084 25.264L38.2392 34.0321L52.8525 25.264L37.8217 16.4958L45.2327 12.0074Z" fill="#8569B2" stroke="#553B89" stroke-width="0.3" stroke-miterlimit="10"/>
</g>
<defs>
<linearGradient id="paint0_linear_1074_3206" x1="3.3109" y1="46.579" x2="0.304755" y2="46.579" gradientUnits="userSpaceOnUse">
<stop stop-color="#573982"/>
<stop offset="0.9888" stop-color="#8569B2"/>
</linearGradient>
<linearGradient id="paint1_linear_1074_3206" x1="3.3109" y1="52.2365" x2="1.80781" y2="52.2365" gradientUnits="userSpaceOnUse">
<stop stop-color="#573982"/>
<stop offset="0.9888" stop-color="#8569B2"/>
</linearGradient>
<linearGradient id="paint2_linear_1074_3206" x1="1.80699" y1="52.2156" x2="0.303934" y2="52.2156" gradientUnits="userSpaceOnUse">
<stop stop-color="#573982"/>
<stop offset="0.9888" stop-color="#8569B2"/>
</linearGradient>
<linearGradient id="paint3_linear_1074_3206" x1="3.3109" y1="36.3494" x2="0.304755" y2="36.3494" gradientUnits="userSpaceOnUse">
<stop stop-color="#573982"/>
<stop offset="0.9888" stop-color="#8569B2"/>
</linearGradient>
<linearGradient id="paint4_linear_1074_3206" x1="3.3109" y1="42.007" x2="1.80781" y2="42.007" gradientUnits="userSpaceOnUse">
<stop stop-color="#573982"/>
<stop offset="0.9888" stop-color="#8569B2"/>
</linearGradient>
<linearGradient id="paint5_linear_1074_3206" x1="1.80699" y1="41.9861" x2="0.303934" y2="41.9861" gradientUnits="userSpaceOnUse">
<stop stop-color="#573982"/>
<stop offset="0.9888" stop-color="#8569B2"/>
</linearGradient>
<linearGradient id="paint6_linear_1074_3206" x1="3.3109" y1="25.9111" x2="0.304755" y2="25.9111" gradientUnits="userSpaceOnUse">
<stop stop-color="#573982"/>
<stop offset="0.9888" stop-color="#8569B2"/>
</linearGradient>
<linearGradient id="paint7_linear_1074_3206" x1="3.3109" y1="31.5687" x2="1.80781" y2="31.5687" gradientUnits="userSpaceOnUse">
<stop stop-color="#573982"/>
<stop offset="0.9888" stop-color="#8569B2"/>
</linearGradient>
<linearGradient id="paint8_linear_1074_3206" x1="1.80699" y1="31.5478" x2="0.303934" y2="31.5478" gradientUnits="userSpaceOnUse">
<stop stop-color="#573982"/>
<stop offset="0.9888" stop-color="#8569B2"/>
</linearGradient>
<linearGradient id="paint9_linear_1074_3206" x1="30.6605" y1="31.9654" x2="27.6543" y2="31.9654" gradientUnits="userSpaceOnUse">
<stop stop-color="#573982"/>
<stop offset="0.9888" stop-color="#8569B2"/>
</linearGradient>
<linearGradient id="paint10_linear_1074_3206" x1="30.6605" y1="37.6229" x2="29.1574" y2="37.6229" gradientUnits="userSpaceOnUse">
<stop stop-color="#573982"/>
<stop offset="0.9888" stop-color="#8569B2"/>
</linearGradient>
<linearGradient id="paint11_linear_1074_3206" x1="29.1566" y1="37.602" x2="27.6535" y2="37.602" gradientUnits="userSpaceOnUse">
<stop stop-color="#573982"/>
<stop offset="0.9888" stop-color="#8569B2"/>
</linearGradient>
<linearGradient id="paint12_linear_1074_3206" x1="30.6605" y1="21.7358" x2="27.6543" y2="21.7358" gradientUnits="userSpaceOnUse">
<stop stop-color="#573982"/>
<stop offset="0.9888" stop-color="#8569B2"/>
</linearGradient>
<linearGradient id="paint13_linear_1074_3206" x1="30.6605" y1="27.3934" x2="29.1574" y2="27.3934" gradientUnits="userSpaceOnUse">
<stop stop-color="#573982"/>
<stop offset="0.9888" stop-color="#8569B2"/>
</linearGradient>
<linearGradient id="paint14_linear_1074_3206" x1="29.1566" y1="27.3725" x2="27.6535" y2="27.3725" gradientUnits="userSpaceOnUse">
<stop stop-color="#573982"/>
<stop offset="0.9888" stop-color="#8569B2"/>
</linearGradient>
<linearGradient id="paint15_linear_1074_3206" x1="30.6605" y1="11.2976" x2="27.6543" y2="11.2976" gradientUnits="userSpaceOnUse">
<stop stop-color="#573982"/>
<stop offset="0.9888" stop-color="#8569B2"/>
</linearGradient>
<linearGradient id="paint16_linear_1074_3206" x1="30.6605" y1="16.9551" x2="29.1574" y2="16.9551" gradientUnits="userSpaceOnUse">
<stop stop-color="#573982"/>
<stop offset="0.9888" stop-color="#8569B2"/>
</linearGradient>
<linearGradient id="paint17_linear_1074_3206" x1="29.1566" y1="16.9342" x2="27.6535" y2="16.9342" gradientUnits="userSpaceOnUse">
<stop stop-color="#573982"/>
<stop offset="0.9888" stop-color="#8569B2"/>
</linearGradient>
<linearGradient id="paint18_linear_1074_3206" x1="17.9242" y1="54.7208" x2="14.918" y2="54.7208" gradientUnits="userSpaceOnUse">
<stop stop-color="#573982"/>
<stop offset="0.9888" stop-color="#8569B2"/>
</linearGradient>
<linearGradient id="paint19_linear_1074_3206" x1="17.9242" y1="60.3784" x2="16.4211" y2="60.3784" gradientUnits="userSpaceOnUse">
<stop stop-color="#573982"/>
<stop offset="0.9888" stop-color="#8569B2"/>
</linearGradient>
<linearGradient id="paint20_linear_1074_3206" x1="16.4203" y1="60.3575" x2="14.9172" y2="60.3575" gradientUnits="userSpaceOnUse">
<stop stop-color="#573982"/>
<stop offset="0.9888" stop-color="#8569B2"/>
</linearGradient>
<linearGradient id="paint21_linear_1074_3206" x1="9.99254" y1="50.128" x2="6.9864" y2="50.128" gradientUnits="userSpaceOnUse">
<stop stop-color="#573982"/>
<stop offset="0.9888" stop-color="#8569B2"/>
</linearGradient>
<linearGradient id="paint22_linear_1074_3206" x1="9.99254" y1="55.7855" x2="8.48945" y2="55.7855" gradientUnits="userSpaceOnUse">
<stop stop-color="#573982"/>
<stop offset="0.9888" stop-color="#8569B2"/>
</linearGradient>
<linearGradient id="paint23_linear_1074_3206" x1="8.49058" y1="55.7646" x2="6.98753" y2="55.7646" gradientUnits="userSpaceOnUse">
<stop stop-color="#573982"/>
<stop offset="0.9888" stop-color="#8569B2"/>
</linearGradient>
<linearGradient id="paint24_linear_1074_3206" x1="27.7377" y1="50.7543" x2="24.7315" y2="50.7543" gradientUnits="userSpaceOnUse">
<stop stop-color="#573982"/>
<stop offset="0.9888" stop-color="#8569B2"/>
</linearGradient>
<linearGradient id="paint25_linear_1074_3206" x1="27.7377" y1="56.4118" x2="26.2346" y2="56.4118" gradientUnits="userSpaceOnUse">
<stop stop-color="#573982"/>
<stop offset="0.9888" stop-color="#8569B2"/>
</linearGradient>
<linearGradient id="paint26_linear_1074_3206" x1="26.2337" y1="56.3909" x2="24.7307" y2="56.3909" gradientUnits="userSpaceOnUse">
<stop stop-color="#573982"/>
<stop offset="0.9888" stop-color="#8569B2"/>
</linearGradient>
<linearGradient id="paint27_linear_1074_3206" x1="17.9242" y1="45.9527" x2="14.918" y2="45.9527" gradientUnits="userSpaceOnUse">
<stop stop-color="#573982"/>
<stop offset="0.9888" stop-color="#8569B2"/>
</linearGradient>
<linearGradient id="paint28_linear_1074_3206" x1="17.9242" y1="51.6102" x2="16.4211" y2="51.6102" gradientUnits="userSpaceOnUse">
<stop stop-color="#573982"/>
<stop offset="0.9888" stop-color="#8569B2"/>
</linearGradient>
<linearGradient id="paint29_linear_1074_3206" x1="16.4203" y1="51.5893" x2="14.9172" y2="51.5893" gradientUnits="userSpaceOnUse">
<stop stop-color="#573982"/>
<stop offset="0.9888" stop-color="#8569B2"/>
</linearGradient>
<linearGradient id="paint30_linear_1074_3206" x1="9.99254" y1="41.1511" x2="6.9864" y2="41.1511" gradientUnits="userSpaceOnUse">
<stop stop-color="#573982"/>
<stop offset="0.9888" stop-color="#8569B2"/>
</linearGradient>
<linearGradient id="paint31_linear_1074_3206" x1="9.99254" y1="46.8086" x2="8.48945" y2="46.8086" gradientUnits="userSpaceOnUse">
<stop stop-color="#573982"/>
<stop offset="0.9888" stop-color="#8569B2"/>
</linearGradient>
<linearGradient id="paint32_linear_1074_3206" x1="8.49058" y1="46.7877" x2="6.98753" y2="46.7877" gradientUnits="userSpaceOnUse">
<stop stop-color="#573982"/>
<stop offset="0.9888" stop-color="#8569B2"/>
</linearGradient>
<linearGradient id="paint33_linear_1074_3206" x1="35.0433" y1="47.2053" x2="32.0372" y2="47.2053" gradientUnits="userSpaceOnUse">
<stop stop-color="#573982"/>
<stop offset="0.9888" stop-color="#8569B2"/>
</linearGradient>
<linearGradient id="paint34_linear_1074_3206" x1="35.0433" y1="52.8628" x2="33.5402" y2="52.8628" gradientUnits="userSpaceOnUse">
<stop stop-color="#573982"/>
<stop offset="0.9888" stop-color="#8569B2"/>
</linearGradient>
<linearGradient id="paint35_linear_1074_3206" x1="33.5394" y1="52.8419" x2="32.0363" y2="52.8419" gradientUnits="userSpaceOnUse">
<stop stop-color="#573982"/>
<stop offset="0.9888" stop-color="#8569B2"/>
</linearGradient>
<linearGradient id="paint36_linear_1074_3206" x1="27.7377" y1="44.0738" x2="24.7315" y2="44.0738" gradientUnits="userSpaceOnUse">
<stop stop-color="#573982"/>
<stop offset="0.9888" stop-color="#8569B2"/>
</linearGradient>
<linearGradient id="paint37_linear_1074_3206" x1="27.7377" y1="49.7313" x2="26.2346" y2="49.7313" gradientUnits="userSpaceOnUse">
<stop stop-color="#573982"/>
<stop offset="0.9888" stop-color="#8569B2"/>
</linearGradient>
<linearGradient id="paint38_linear_1074_3206" x1="26.2337" y1="49.7104" x2="24.7307" y2="49.7104" gradientUnits="userSpaceOnUse">
<stop stop-color="#573982"/>
<stop offset="0.9888" stop-color="#8569B2"/>
</linearGradient>
<linearGradient id="paint39_linear_1074_3206" x1="17.9242" y1="39.2722" x2="14.918" y2="39.2722" gradientUnits="userSpaceOnUse">
<stop stop-color="#573982"/>
<stop offset="0.9888" stop-color="#8569B2"/>
</linearGradient>
<linearGradient id="paint40_linear_1074_3206" x1="17.9242" y1="44.9297" x2="16.4211" y2="44.9297" gradientUnits="userSpaceOnUse">
<stop stop-color="#573982"/>
<stop offset="0.9888" stop-color="#8569B2"/>
</linearGradient>
<linearGradient id="paint41_linear_1074_3206" x1="16.4203" y1="44.9088" x2="14.9172" y2="44.9088" gradientUnits="userSpaceOnUse">
<stop stop-color="#573982"/>
<stop offset="0.9888" stop-color="#8569B2"/>
</linearGradient>
<linearGradient id="paint42_linear_1074_3206" x1="9.99254" y1="34.4706" x2="6.9864" y2="34.4706" gradientUnits="userSpaceOnUse">
<stop stop-color="#573982"/>
<stop offset="0.9888" stop-color="#8569B2"/>
</linearGradient>
<linearGradient id="paint43_linear_1074_3206" x1="9.99254" y1="40.1281" x2="8.48945" y2="40.1281" gradientUnits="userSpaceOnUse">
<stop stop-color="#573982"/>
<stop offset="0.9888" stop-color="#8569B2"/>
</linearGradient>
<linearGradient id="paint44_linear_1074_3206" x1="8.49058" y1="40.1072" x2="6.98753" y2="40.1072" gradientUnits="userSpaceOnUse">
<stop stop-color="#573982"/>
<stop offset="0.9888" stop-color="#8569B2"/>
</linearGradient>
<linearGradient id="paint45_linear_1074_3206" x1="75.7513" y1="29.2514" x2="72.7452" y2="29.2514" gradientUnits="userSpaceOnUse">
<stop stop-color="#573982"/>
<stop offset="0.9888" stop-color="#8569B2"/>
</linearGradient>
<linearGradient id="paint46_linear_1074_3206" x1="75.7513" y1="34.909" x2="74.2482" y2="34.909" gradientUnits="userSpaceOnUse">
<stop stop-color="#573982"/>
<stop offset="0.9888" stop-color="#8569B2"/>
</linearGradient>
<linearGradient id="paint47_linear_1074_3206" x1="74.2474" y1="34.8881" x2="72.7443" y2="34.8881" gradientUnits="userSpaceOnUse">
<stop stop-color="#573982"/>
<stop offset="0.9888" stop-color="#8569B2"/>
</linearGradient>
<linearGradient id="paint48_linear_1074_3206" x1="41.932" y1="16.5167" x2="38.9258" y2="16.5167" gradientUnits="userSpaceOnUse">
<stop stop-color="#573982"/>
<stop offset="0.9888" stop-color="#8569B2"/>
</linearGradient>
<linearGradient id="paint49_linear_1074_3206" x1="41.932" y1="22.1743" x2="40.4289" y2="22.1743" gradientUnits="userSpaceOnUse">
<stop stop-color="#573982"/>
<stop offset="0.9888" stop-color="#8569B2"/>
</linearGradient>
<linearGradient id="paint50_linear_1074_3206" x1="40.4281" y1="22.1534" x2="38.925" y2="22.1534" gradientUnits="userSpaceOnUse">
<stop stop-color="#573982"/>
<stop offset="0.9888" stop-color="#8569B2"/>
</linearGradient>
<linearGradient id="paint51_linear_1074_3206" x1="24.6058" y1="25.9111" x2="21.5997" y2="25.9111" gradientUnits="userSpaceOnUse">
<stop stop-color="#573982"/>
<stop offset="0.9888" stop-color="#8569B2"/>
</linearGradient>
<linearGradient id="paint52_linear_1074_3206" x1="24.6058" y1="31.5687" x2="23.1027" y2="31.5687" gradientUnits="userSpaceOnUse">
<stop stop-color="#573982"/>
<stop offset="0.9888" stop-color="#8569B2"/>
</linearGradient>
<linearGradient id="paint53_linear_1074_3206" x1="23.1039" y1="31.5478" x2="21.6008" y2="31.5478" gradientUnits="userSpaceOnUse">
<stop stop-color="#573982"/>
<stop offset="0.9888" stop-color="#8569B2"/>
</linearGradient>
<linearGradient id="paint54_linear_1074_3206" x1="17.5072" y1="20.692" x2="14.501" y2="20.692" gradientUnits="userSpaceOnUse">
<stop stop-color="#573982"/>
<stop offset="0.9888" stop-color="#8569B2"/>
</linearGradient>
<linearGradient id="paint55_linear_1074_3206" x1="17.5072" y1="26.3496" x2="16.0041" y2="26.3496" gradientUnits="userSpaceOnUse">
<stop stop-color="#573982"/>
<stop offset="0.9888" stop-color="#8569B2"/>
</linearGradient>
<linearGradient id="paint56_linear_1074_3206" x1="16.0033" y1="26.3287" x2="14.5002" y2="26.3287" gradientUnits="userSpaceOnUse">
<stop stop-color="#573982"/>
<stop offset="0.9888" stop-color="#8569B2"/>
</linearGradient>
<linearGradient id="paint57_linear_1074_3206" x1="32.7464" y1="12.1326" x2="29.7403" y2="12.1326" gradientUnits="userSpaceOnUse">
<stop stop-color="#573982"/>
<stop offset="0.9888" stop-color="#8569B2"/>
</linearGradient>
<linearGradient id="paint58_linear_1074_3206" x1="32.7464" y1="17.7902" x2="31.2434" y2="17.7902" gradientUnits="userSpaceOnUse">
<stop stop-color="#573982"/>
<stop offset="0.9888" stop-color="#8569B2"/>
</linearGradient>
<linearGradient id="paint59_linear_1074_3206" x1="31.2425" y1="17.7693" x2="29.7395" y2="17.7693" gradientUnits="userSpaceOnUse">
<stop stop-color="#573982"/>
<stop offset="0.9888" stop-color="#8569B2"/>
</linearGradient>
<linearGradient id="paint60_linear_1074_3206" x1="38.5912" y1="8.37485" x2="35.585" y2="8.37485" gradientUnits="userSpaceOnUse">
<stop stop-color="#573982"/>
<stop offset="0.9888" stop-color="#8569B2"/>
</linearGradient>
<linearGradient id="paint61_linear_1074_3206" x1="38.5912" y1="14.0324" x2="37.0881" y2="14.0324" gradientUnits="userSpaceOnUse">
<stop stop-color="#573982"/>
<stop offset="0.9888" stop-color="#8569B2"/>
</linearGradient>
<linearGradient id="paint62_linear_1074_3206" x1="37.0873" y1="14.0115" x2="35.5842" y2="14.0115" gradientUnits="userSpaceOnUse">
<stop stop-color="#573982"/>
<stop offset="0.9888" stop-color="#8569B2"/>
</linearGradient>
<linearGradient id="paint63_linear_1074_3206" x1="46.5257" y1="12.9677" x2="43.5196" y2="12.9677" gradientUnits="userSpaceOnUse">
<stop stop-color="#573982"/>
<stop offset="0.9888" stop-color="#8569B2"/>
</linearGradient>
<linearGradient id="paint64_linear_1074_3206" x1="46.5257" y1="18.6252" x2="45.0227" y2="18.6252" gradientUnits="userSpaceOnUse">
<stop stop-color="#573982"/>
<stop offset="0.9888" stop-color="#8569B2"/>
</linearGradient>
<linearGradient id="paint65_linear_1074_3206" x1="45.0238" y1="18.6043" x2="43.5207" y2="18.6043" gradientUnits="userSpaceOnUse">
<stop stop-color="#573982"/>
<stop offset="0.9888" stop-color="#8569B2"/>
</linearGradient>
<linearGradient id="paint66_linear_1074_3206" x1="69.9066" y1="25.9112" x2="66.9004" y2="25.9112" gradientUnits="userSpaceOnUse">
<stop stop-color="#573982"/>
<stop offset="0.9888" stop-color="#8569B2"/>
</linearGradient>
<linearGradient id="paint67_linear_1074_3206" x1="69.9066" y1="31.5687" x2="68.4035" y2="31.5687" gradientUnits="userSpaceOnUse">
<stop stop-color="#573982"/>
<stop offset="0.9888" stop-color="#8569B2"/>
</linearGradient>
<linearGradient id="paint68_linear_1074_3206" x1="68.4027" y1="31.5478" x2="66.8996" y2="31.5478" gradientUnits="userSpaceOnUse">
<stop stop-color="#573982"/>
<stop offset="0.9888" stop-color="#8569B2"/>
</linearGradient>
<linearGradient id="paint69_linear_1074_3206" x1="47.3597" y1="45.5351" x2="44.3536" y2="45.5351" gradientUnits="userSpaceOnUse">
<stop stop-color="#573982"/>
<stop offset="0.9888" stop-color="#8569B2"/>
</linearGradient>
<linearGradient id="paint70_linear_1074_3206" x1="47.3597" y1="51.1927" x2="45.8566" y2="51.1927" gradientUnits="userSpaceOnUse">
<stop stop-color="#573982"/>
<stop offset="0.9888" stop-color="#8569B2"/>
</linearGradient>
<linearGradient id="paint71_linear_1074_3206" x1="45.8558" y1="51.1718" x2="44.3527" y2="51.1718" gradientUnits="userSpaceOnUse">
<stop stop-color="#573982"/>
<stop offset="0.9888" stop-color="#8569B2"/>
</linearGradient>
<linearGradient id="paint72_linear_1074_3206" x1="67.6097" y1="33.8443" x2="64.6036" y2="33.8443" gradientUnits="userSpaceOnUse">
<stop stop-color="#573982"/>
<stop offset="0.9888" stop-color="#8569B2"/>
</linearGradient>
<linearGradient id="paint73_linear_1074_3206" x1="67.6097" y1="39.5018" x2="66.1066" y2="39.5018" gradientUnits="userSpaceOnUse">
<stop stop-color="#573982"/>
<stop offset="0.9888" stop-color="#8569B2"/>
</linearGradient>
<linearGradient id="paint74_linear_1074_3206" x1="66.1058" y1="39.4809" x2="64.6027" y2="39.4809" gradientUnits="userSpaceOnUse">
<stop stop-color="#573982"/>
<stop offset="0.9888" stop-color="#8569B2"/>
</linearGradient>
<linearGradient id="paint75_linear_1074_3206" x1="55.0843" y1="40.9423" x2="52.0782" y2="40.9423" gradientUnits="userSpaceOnUse">
<stop stop-color="#573982"/>
<stop offset="0.9888" stop-color="#8569B2"/>
</linearGradient>
<linearGradient id="paint76_linear_1074_3206" x1="55.0843" y1="46.5998" x2="53.5813" y2="46.5998" gradientUnits="userSpaceOnUse">
<stop stop-color="#573982"/>
<stop offset="0.9888" stop-color="#8569B2"/>
</linearGradient>
<linearGradient id="paint77_linear_1074_3206" x1="53.5804" y1="46.5789" x2="52.0773" y2="46.5789" gradientUnits="userSpaceOnUse">
<stop stop-color="#573982"/>
<stop offset="0.9888" stop-color="#8569B2"/>
</linearGradient>
<linearGradient id="paint78_linear_1074_3206" x1="41.932" y1="42.1949" x2="38.9258" y2="42.1949" gradientUnits="userSpaceOnUse">
<stop stop-color="#573982"/>
<stop offset="0.9888" stop-color="#8569B2"/>
</linearGradient>
<linearGradient id="paint79_linear_1074_3206" x1="41.932" y1="47.8524" x2="40.4289" y2="47.8524" gradientUnits="userSpaceOnUse">
<stop stop-color="#573982"/>
<stop offset="0.9888" stop-color="#8569B2"/>
</linearGradient>
<linearGradient id="paint80_linear_1074_3206" x1="40.4281" y1="47.8316" x2="38.925" y2="47.8316" gradientUnits="userSpaceOnUse">
<stop stop-color="#573982"/>
<stop offset="0.9888" stop-color="#8569B2"/>
</linearGradient>
<linearGradient id="paint81_linear_1074_3206" x1="35.0433" y1="38.4371" x2="32.0372" y2="38.4371" gradientUnits="userSpaceOnUse">
<stop stop-color="#573982"/>
<stop offset="0.9888" stop-color="#8569B2"/>
</linearGradient>
<linearGradient id="paint82_linear_1074_3206" x1="35.0433" y1="44.0946" x2="33.5402" y2="44.0946" gradientUnits="userSpaceOnUse">
<stop stop-color="#573982"/>
<stop offset="0.9888" stop-color="#8569B2"/>
</linearGradient>
<linearGradient id="paint83_linear_1074_3206" x1="33.5394" y1="44.0738" x2="32.0363" y2="44.0738" gradientUnits="userSpaceOnUse">
<stop stop-color="#573982"/>
<stop offset="0.9888" stop-color="#8569B2"/>
</linearGradient>
<linearGradient id="paint84_linear_1074_3206" x1="27.7377" y1="34.053" x2="24.7315" y2="34.053" gradientUnits="userSpaceOnUse">
<stop stop-color="#573982"/>
<stop offset="0.9888" stop-color="#8569B2"/>
</linearGradient>
<linearGradient id="paint85_linear_1074_3206" x1="27.7377" y1="39.7106" x2="26.2346" y2="39.7106" gradientUnits="userSpaceOnUse">
<stop stop-color="#573982"/>
<stop offset="0.9888" stop-color="#8569B2"/>
</linearGradient>
<linearGradient id="paint86_linear_1074_3206" x1="26.2337" y1="39.6897" x2="24.7307" y2="39.6897" gradientUnits="userSpaceOnUse">
<stop stop-color="#573982"/>
<stop offset="0.9888" stop-color="#8569B2"/>
</linearGradient>
<linearGradient id="paint87_linear_1074_3206" x1="17.9242" y1="29.0427" x2="14.918" y2="29.0427" gradientUnits="userSpaceOnUse">
<stop stop-color="#573982"/>
<stop offset="0.9888" stop-color="#8569B2"/>
</linearGradient>
<linearGradient id="paint88_linear_1074_3206" x1="17.9242" y1="34.7002" x2="16.4211" y2="34.7002" gradientUnits="userSpaceOnUse">
<stop stop-color="#573982"/>
<stop offset="0.9888" stop-color="#8569B2"/>
</linearGradient>
<linearGradient id="paint89_linear_1074_3206" x1="16.4203" y1="34.6793" x2="14.9172" y2="34.6793" gradientUnits="userSpaceOnUse">
<stop stop-color="#573982"/>
<stop offset="0.9888" stop-color="#8569B2"/>
</linearGradient>
<linearGradient id="paint90_linear_1074_3206" x1="9.99254" y1="24.0323" x2="6.9864" y2="24.0323" gradientUnits="userSpaceOnUse">
<stop stop-color="#573982"/>
<stop offset="0.9888" stop-color="#8569B2"/>
</linearGradient>
<linearGradient id="paint91_linear_1074_3206" x1="9.99254" y1="29.6898" x2="8.48945" y2="29.6898" gradientUnits="userSpaceOnUse">
<stop stop-color="#573982"/>
<stop offset="0.9888" stop-color="#8569B2"/>
</linearGradient>
<linearGradient id="paint92_linear_1074_3206" x1="8.49058" y1="29.6689" x2="6.98753" y2="29.6689" gradientUnits="userSpaceOnUse">
<stop stop-color="#573982"/>
<stop offset="0.9888" stop-color="#8569B2"/>
</linearGradient>
<linearGradient id="paint93_linear_1074_3206" x1="3.3109" y1="15.6816" x2="0.304755" y2="15.6816" gradientUnits="userSpaceOnUse">
<stop stop-color="#573982"/>
<stop offset="0.9888" stop-color="#8569B2"/>
</linearGradient>
<linearGradient id="paint94_linear_1074_3206" x1="3.3109" y1="21.3392" x2="1.80781" y2="21.3392" gradientUnits="userSpaceOnUse">
<stop stop-color="#573982"/>
<stop offset="0.9888" stop-color="#8569B2"/>
</linearGradient>
<linearGradient id="paint95_linear_1074_3206" x1="1.80699" y1="21.3183" x2="0.303934" y2="21.3183" gradientUnits="userSpaceOnUse">
<stop stop-color="#573982"/>
<stop offset="0.9888" stop-color="#8569B2"/>
</linearGradient>
<linearGradient id="paint96_linear_1074_3206" x1="30.6605" y1="1.27682" x2="27.6543" y2="1.27682" gradientUnits="userSpaceOnUse">
<stop stop-color="#573982"/>
<stop offset="0.9888" stop-color="#8569B2"/>
</linearGradient>
<linearGradient id="paint97_linear_1074_3206" x1="30.6605" y1="6.93436" x2="29.1574" y2="6.93436" gradientUnits="userSpaceOnUse">
<stop stop-color="#573982"/>
<stop offset="0.9888" stop-color="#8569B2"/>
</linearGradient>
<linearGradient id="paint98_linear_1074_3206" x1="29.1566" y1="6.91349" x2="27.6535" y2="6.91349" gradientUnits="userSpaceOnUse">
<stop stop-color="#573982"/>
<stop offset="0.9888" stop-color="#8569B2"/>
</linearGradient>
<clipPath id="clip0_1074_3206">
<rect width="76.2" height="82.5" fill="white" transform="matrix(-1 0 0 1 76.2998 0.400002)"/>
</clipPath>
</defs>
</svg>
