<svg width="77" height="83" viewBox="0 0 77 83" fill="none" xmlns="http://www.w3.org/2000/svg">
<g clip-path="url(#clip0_1074_3066)">
<path d="M31.1495 82.8789L76.4508 56.992L46.3891 39.6644L1.08789 65.5514L31.1495 82.8789Z" fill="#8569B2" stroke="#553B89" stroke-width="0.3" stroke-miterlimit="10"/>
<path d="M73.4873 46.7207L75.0739 45.8022L76.4935 46.679L74.9904 47.5558L73.4873 46.7207Z" fill="url(#paint0_linear_1074_3066)"/>
<path d="M73.4873 46.7207V57.0755L74.9904 57.9523V47.5558L73.4873 46.7207Z" fill="url(#paint1_linear_1074_3066)"/>
<path d="M76.4943 46.679V57.1173L74.9912 57.9523V47.5558L76.4943 46.679Z" fill="url(#paint2_linear_1074_3066)"/>
<path d="M73.4873 36.4912L75.0739 35.5726L76.4935 36.4495L74.9904 37.3263L73.4873 36.4912Z" fill="url(#paint3_linear_1074_3066)"/>
<path d="M73.4873 36.4912V46.846L74.9904 47.7228V37.3263L73.4873 36.4912Z" fill="url(#paint4_linear_1074_3066)"/>
<path d="M76.4943 36.4495V46.8877L74.9912 47.7228V37.3263L76.4943 36.4495Z" fill="url(#paint5_linear_1074_3066)"/>
<path d="M73.4873 26.0529L75.0739 25.1343L76.4935 26.0111L74.9904 26.888L73.4873 26.0529Z" fill="url(#paint6_linear_1074_3066)"/>
<path d="M73.4873 26.0529V36.4077L74.9904 37.2845V26.888L73.4873 26.0529Z" fill="url(#paint7_linear_1074_3066)"/>
<path d="M76.4943 26.0112V36.4494L74.9912 37.2845V26.888L76.4943 26.0112Z" fill="url(#paint8_linear_1074_3066)"/>
<path d="M46.1377 32.1071L47.7243 31.1885L49.1439 32.0654L47.6408 32.9422L46.1377 32.1071Z" fill="url(#paint9_linear_1074_3066)"/>
<path d="M46.1377 32.1071V42.4619L47.6408 43.3387V32.9422L46.1377 32.1071Z" fill="url(#paint10_linear_1074_3066)"/>
<path d="M49.1447 32.0654V42.5036L47.6416 43.3387V32.9422L49.1447 32.0654Z" fill="url(#paint11_linear_1074_3066)"/>
<path d="M46.1377 21.8776L47.7243 20.959L49.1439 21.8359L47.6408 22.7127L46.1377 21.8776Z" fill="url(#paint12_linear_1074_3066)"/>
<path d="M46.1377 21.8776V32.2324L47.6408 33.1092V22.7127L46.1377 21.8776Z" fill="url(#paint13_linear_1074_3066)"/>
<path d="M49.1447 21.8359V32.2741L47.6416 33.1092V22.7127L49.1447 21.8359Z" fill="url(#paint14_linear_1074_3066)"/>
<path d="M46.1377 11.4393L47.7243 10.5208L49.1439 11.3976L47.6408 12.2744L46.1377 11.4393Z" fill="url(#paint15_linear_1074_3066)"/>
<path d="M46.1377 11.4393V21.7941L47.6408 22.6709V12.2744L46.1377 11.4393Z" fill="url(#paint16_linear_1074_3066)"/>
<path d="M49.1447 11.3976V21.8358L47.6416 22.6709V12.2744L49.1447 11.3976Z" fill="url(#paint17_linear_1074_3066)"/>
<path d="M58.874 54.8626L60.4606 53.944L61.8802 54.8208L60.3771 55.6976L58.874 54.8626Z" fill="url(#paint18_linear_1074_3066)"/>
<path d="M58.874 54.8625V65.2173L60.3771 66.0941V55.6976L58.874 54.8625Z" fill="url(#paint19_linear_1074_3066)"/>
<path d="M61.881 54.8208V65.2591L60.3779 66.0941V55.6976L61.881 54.8208Z" fill="url(#paint20_linear_1074_3066)"/>
<path d="M66.8057 50.2697L68.3923 49.3512L69.8118 50.228L68.3087 51.1048L66.8057 50.2697Z" fill="url(#paint21_linear_1074_3066)"/>
<path d="M66.8057 50.2697V60.6245L68.3087 61.5013V51.1048L66.8057 50.2697Z" fill="url(#paint22_linear_1074_3066)"/>
<path d="M69.8107 50.228V60.6663L68.3076 61.5013V51.1048L69.8107 50.228Z" fill="url(#paint23_linear_1074_3066)"/>
<path d="M31.1866 74.0586L76.4879 48.1716L46.4262 30.8441L1.125 56.731L31.1866 74.0586Z" fill="#8569B2" stroke="#553B89" stroke-width="0.3" stroke-miterlimit="10"/>
<path d="M49.0615 50.896L50.6481 49.9775L52.0677 50.8543L50.5646 51.7311L49.0615 50.896Z" fill="url(#paint24_linear_1074_3066)"/>
<path d="M49.0615 50.896V61.2508L50.5646 62.1276V51.7311L49.0615 50.896Z" fill="url(#paint25_linear_1074_3066)"/>
<path d="M52.0685 50.8543V61.2926L50.5654 62.1276V51.7311L52.0685 50.8543Z" fill="url(#paint26_linear_1074_3066)"/>
<path d="M58.874 46.0944L60.4606 45.1759L61.8802 46.0527L60.3771 46.9295L58.874 46.0944Z" fill="url(#paint27_linear_1074_3066)"/>
<path d="M58.874 46.0944V56.4492L60.3771 57.326V46.9295L58.874 46.0944Z" fill="url(#paint28_linear_1074_3066)"/>
<path d="M61.881 46.0527V56.491L60.3779 57.326V46.9295L61.881 46.0527Z" fill="url(#paint29_linear_1074_3066)"/>
<path d="M66.8057 41.2928L68.3923 40.3743L69.8118 41.2511L68.3087 42.1279L66.8057 41.2928Z" fill="url(#paint30_linear_1074_3066)"/>
<path d="M66.8057 41.2928V51.6476L68.3087 52.5244V42.1279L66.8057 41.2928Z" fill="url(#paint31_linear_1074_3066)"/>
<path d="M69.8107 41.2511V51.6893L68.3076 52.5244V42.1279L69.8107 41.2511Z" fill="url(#paint32_linear_1074_3066)"/>
<path d="M31.1866 66.543L76.4879 40.6561L46.4262 23.3285L1.125 49.2155L31.1866 66.543Z" fill="#8569B2" stroke="#553B89" stroke-width="0.3" stroke-miterlimit="10"/>
<path d="M41.7549 47.347L43.3415 46.4285L44.761 47.3053L43.258 48.1821L41.7549 47.347Z" fill="url(#paint33_linear_1074_3066)"/>
<path d="M41.7549 47.347V57.7018L43.258 58.5786V48.1821L41.7549 47.347Z" fill="url(#paint34_linear_1074_3066)"/>
<path d="M44.7619 47.3053V57.7436L43.2588 58.5786V48.1821L44.7619 47.3053Z" fill="url(#paint35_linear_1074_3066)"/>
<path d="M49.0615 44.2155L50.6481 43.2969L52.0677 44.1738L50.5646 45.0506L49.0615 44.2155Z" fill="url(#paint36_linear_1074_3066)"/>
<path d="M49.0615 44.2155V54.5703L50.5646 55.4471V45.0506L49.0615 44.2155Z" fill="url(#paint37_linear_1074_3066)"/>
<path d="M52.0685 44.1738V54.612L50.5654 55.4471V45.0506L52.0685 44.1738Z" fill="url(#paint38_linear_1074_3066)"/>
<path d="M58.874 39.4139L60.4606 38.4954L61.8802 39.3722L60.3771 40.249L58.874 39.4139Z" fill="url(#paint39_linear_1074_3066)"/>
<path d="M58.874 39.4139V49.7687L60.3771 50.6455V40.249L58.874 39.4139Z" fill="url(#paint40_linear_1074_3066)"/>
<path d="M61.881 39.3722V49.8105L60.3779 50.6455V40.249L61.881 39.3722Z" fill="url(#paint41_linear_1074_3066)"/>
<path d="M66.8057 34.6123L68.3923 33.6938L69.8118 34.5706L68.3087 35.4474L66.8057 34.6123Z" fill="url(#paint42_linear_1074_3066)"/>
<path d="M66.8057 34.6123V44.9671L68.3087 45.8439V35.4474L66.8057 34.6123Z" fill="url(#paint43_linear_1074_3066)"/>
<path d="M69.8107 34.5706V45.0089L68.3076 45.8439V35.4474L69.8107 34.5706Z" fill="url(#paint44_linear_1074_3066)"/>
<path d="M31.0452 56.8876L76.0709 30.6353L46.0092 13.3078L0.708008 39.4035L31.0452 56.8876Z" fill="#8569B2" stroke="#553B89" stroke-width="0.3" stroke-miterlimit="10"/>
<path d="M1.04688 29.3932L2.63346 28.4746L4.05304 29.3514L2.54996 30.2282L1.04688 29.3932Z" fill="url(#paint45_linear_1074_3066)"/>
<path d="M1.04688 29.3932V39.7479L2.54996 40.6247V30.2282L1.04688 29.3932Z" fill="url(#paint46_linear_1074_3066)"/>
<path d="M4.05386 29.3514V39.7897L2.55078 40.6248V30.2282L4.05386 29.3514Z" fill="url(#paint47_linear_1074_3066)"/>
<path d="M34.8662 16.6585L36.4528 15.7399L37.8724 16.6167L36.3693 17.4935L34.8662 16.6585Z" fill="url(#paint48_linear_1074_3066)"/>
<path d="M34.8662 16.6585V27.0132L36.3693 27.8901V17.4935L34.8662 16.6585Z" fill="url(#paint49_linear_1074_3066)"/>
<path d="M37.8732 16.6167V27.055L36.3701 27.8901V17.4935L37.8732 16.6167Z" fill="url(#paint50_linear_1074_3066)"/>
<path d="M52.1924 26.0529L53.779 25.1343L55.1985 26.0111L53.6955 26.888L52.1924 26.0529Z" fill="url(#paint51_linear_1074_3066)"/>
<path d="M52.1924 26.0529V36.4077L53.6955 37.2845V26.888L52.1924 26.0529Z" fill="url(#paint52_linear_1074_3066)"/>
<path d="M55.1974 26.0111V36.4494L53.6943 37.2845V26.8879L55.1974 26.0111Z" fill="url(#paint53_linear_1074_3066)"/>
<path d="M59.292 20.8338L60.8786 19.9152L62.2982 20.792L60.7951 21.6689L59.292 20.8338Z" fill="url(#paint54_linear_1074_3066)"/>
<path d="M59.292 20.8338V31.1886L60.7951 32.0654V21.6689L59.292 20.8338Z" fill="url(#paint55_linear_1074_3066)"/>
<path d="M62.299 20.792V31.2303L60.7959 32.0654V21.6689L62.299 20.792Z" fill="url(#paint56_linear_1074_3066)"/>
<path d="M44.0527 12.2744L45.6393 11.3558L47.0589 12.2326L45.5558 13.1095L44.0527 12.2744Z" fill="url(#paint57_linear_1074_3066)"/>
<path d="M44.0527 12.2744V22.6292L45.5558 23.506V13.1095L44.0527 12.2744Z" fill="url(#paint58_linear_1074_3066)"/>
<path d="M47.0597 12.2326V22.6709L45.5566 23.506V13.1094L47.0597 12.2326Z" fill="url(#paint59_linear_1074_3066)"/>
<path d="M38.207 8.51661L39.7936 7.59804L41.2132 8.47485L39.7101 9.35167L38.207 8.51661Z" fill="url(#paint60_linear_1074_3066)"/>
<path d="M38.207 8.51661V18.8714L39.7101 19.7482V9.35167L38.207 8.51661Z" fill="url(#paint61_linear_1074_3066)"/>
<path d="M41.214 8.47485V18.9131L39.7109 19.7482V9.35167L41.214 8.47485Z" fill="url(#paint62_linear_1074_3066)"/>
<path d="M30.2725 13.1094L31.859 12.1909L33.2786 13.0677L31.7755 13.9445L30.2725 13.1094Z" fill="url(#paint63_linear_1074_3066)"/>
<path d="M30.2725 13.1094V23.4642L31.7755 24.341V13.9445L30.2725 13.1094Z" fill="url(#paint64_linear_1074_3066)"/>
<path d="M33.2775 13.0677V23.506L31.7744 24.341V13.9445L33.2775 13.0677Z" fill="url(#paint65_linear_1074_3066)"/>
<path d="M6.8916 26.0529L8.47819 25.1343L9.89777 26.0112L8.39468 26.888L6.8916 26.0529Z" fill="url(#paint66_linear_1074_3066)"/>
<path d="M6.8916 26.0529V36.4077L8.39468 37.2845V26.888L6.8916 26.0529Z" fill="url(#paint67_linear_1074_3066)"/>
<path d="M9.89859 26.0112V36.4494L8.39551 37.2845V26.888L9.89859 26.0112Z" fill="url(#paint68_linear_1074_3066)"/>
<path d="M29.4385 45.6769L31.0251 44.7583L32.4446 45.6351L30.9416 46.5119L29.4385 45.6769Z" fill="url(#paint69_linear_1074_3066)"/>
<path d="M29.4385 45.6769V56.0316L30.9416 56.9085V46.5119L29.4385 45.6769Z" fill="url(#paint70_linear_1074_3066)"/>
<path d="M32.4455 45.6351V56.0734L30.9424 56.9085V46.5119L32.4455 45.6351Z" fill="url(#paint71_linear_1074_3066)"/>
<path d="M9.18848 33.986L10.7751 33.0675L12.1946 33.9443L10.6916 34.8211L9.18848 33.986Z" fill="url(#paint72_linear_1074_3066)"/>
<path d="M9.18848 33.986V44.3408L10.6916 45.2176V34.8211L9.18848 33.986Z" fill="url(#paint73_linear_1074_3066)"/>
<path d="M12.1955 33.9443V44.3826L10.6924 45.2176V34.8211L12.1955 33.9443Z" fill="url(#paint74_linear_1074_3066)"/>
<path d="M21.7139 41.084L23.3005 40.1655L24.72 41.0423L23.2169 41.9191L21.7139 41.084Z" fill="url(#paint75_linear_1074_3066)"/>
<path d="M21.7139 41.084V51.4388L23.2169 52.3156V41.9191L21.7139 41.084Z" fill="url(#paint76_linear_1074_3066)"/>
<path d="M24.7209 41.0423V51.4806L23.2178 52.3156V41.9191L24.7209 41.0423Z" fill="url(#paint77_linear_1074_3066)"/>
<path d="M34.8662 42.3366L36.4528 41.4181L37.8724 42.2949L36.3693 43.1717L34.8662 42.3366Z" fill="url(#paint78_linear_1074_3066)"/>
<path d="M34.8662 42.3366V52.6914L36.3693 53.5682V43.1717L34.8662 42.3366Z" fill="url(#paint79_linear_1074_3066)"/>
<path d="M37.8732 42.2949V52.7332L36.3701 53.5682V43.1717L37.8732 42.2949Z" fill="url(#paint80_linear_1074_3066)"/>
<path d="M41.7549 38.5788L43.3415 37.6603L44.761 38.5371L43.258 39.4139L41.7549 38.5788Z" fill="url(#paint81_linear_1074_3066)"/>
<path d="M41.7549 38.5788V48.9336L43.258 49.8104V39.4139L41.7549 38.5788Z" fill="url(#paint82_linear_1074_3066)"/>
<path d="M44.7619 38.5371V48.9754L43.2588 49.8104V39.4139L44.7619 38.5371Z" fill="url(#paint83_linear_1074_3066)"/>
<path d="M49.0615 34.1948L50.6481 33.2762L52.0677 34.153L50.5646 35.0298L49.0615 34.1948Z" fill="url(#paint84_linear_1074_3066)"/>
<path d="M49.0615 34.1948V44.5496L50.5646 45.4264V35.0298L49.0615 34.1948Z" fill="url(#paint85_linear_1074_3066)"/>
<path d="M52.0685 34.153V44.5913L50.5654 45.4264V35.0298L52.0685 34.153Z" fill="url(#paint86_linear_1074_3066)"/>
<path d="M58.874 29.1844L60.4606 28.2659L61.8802 29.1427L60.3771 30.0195L58.874 29.1844Z" fill="url(#paint87_linear_1074_3066)"/>
<path d="M58.874 29.1844V39.5392L60.3771 40.416V30.0195L58.874 29.1844Z" fill="url(#paint88_linear_1074_3066)"/>
<path d="M61.881 29.1427V39.5809L60.3779 40.416V30.0195L61.881 29.1427Z" fill="url(#paint89_linear_1074_3066)"/>
<path d="M66.8057 24.174L68.3923 23.2554L69.8118 24.1323L68.3087 25.0091L66.8057 24.174Z" fill="url(#paint90_linear_1074_3066)"/>
<path d="M66.8057 24.174V34.5288L68.3087 35.4056V25.0091L66.8057 24.174Z" fill="url(#paint91_linear_1074_3066)"/>
<path d="M69.8107 24.1322V34.5705L68.3076 35.4056V25.0091L69.8107 24.1322Z" fill="url(#paint92_linear_1074_3066)"/>
<path d="M73.4873 15.8234L75.0739 14.9048L76.4935 15.7816L74.9904 16.6585L73.4873 15.8234Z" fill="url(#paint93_linear_1074_3066)"/>
<path d="M73.4873 15.8234V26.1782L74.9904 27.055V16.6585L73.4873 15.8234Z" fill="url(#paint94_linear_1074_3066)"/>
<path d="M76.4943 15.7817V26.2199L74.9912 27.055V16.6585L76.4943 15.7817Z" fill="url(#paint95_linear_1074_3066)"/>
<path d="M46.1377 1.41857L47.7243 0.5L49.1439 1.37682L47.6408 2.25363L46.1377 1.41857Z" fill="url(#paint96_linear_1074_3066)"/>
<path d="M46.1377 1.41857V11.7733L47.6408 12.6502V2.25363L46.1377 1.41857Z" fill="url(#paint97_linear_1074_3066)"/>
<path d="M49.1447 1.37682V11.8151L47.6416 12.6502V2.25363L49.1447 1.37682Z" fill="url(#paint98_linear_1074_3066)"/>
<path d="M30.9414 56.992L38.4568 52.8167V61.1673L45.9722 56.992V65.7602L53.4876 61.1673V70.1442L31.1502 82.8789L30.9414 56.992Z" fill="#573982"/>
<path d="M30.9408 56.992L1.08789 39.6644V65.5514L31.1495 82.8789L30.9408 56.992ZM8.08975 67.7246L3.48656 65.067L3.50326 59.779L8.10436 62.4366L8.08975 67.7246ZM8.08975 60.3134L3.48656 57.6558L3.50326 52.3678L8.10436 55.0254L8.08975 60.3134ZM8.08975 52.9023L3.48656 50.2447L3.50326 44.9566L8.10436 47.6142L8.08975 52.9023ZM14.6699 71.5221L10.0667 68.8666L10.0834 63.5785L14.6845 66.234L14.6699 71.5221ZM14.6699 64.1109L10.0667 61.4554L10.0834 56.1673L14.6845 58.8228L14.6699 64.1109ZM14.6699 56.6997L10.0667 54.0442L10.0834 48.7562L14.6845 51.4117L14.6699 56.6997ZM21.2501 75.3216L16.6469 72.664L16.6636 67.376L21.2647 70.0336L21.2501 75.3216ZM21.2501 67.9104L16.6469 65.2528L16.6636 59.9648L21.2647 62.6224L21.2501 67.9104ZM21.2501 60.4992L16.6469 57.8417L16.6636 52.5536L21.2647 55.2112L21.2501 60.4992ZM27.8302 79.1211L23.227 76.4635L23.2437 71.1755L27.8448 73.8331L27.8302 79.1211ZM27.8302 71.71L23.227 69.0524L23.2437 63.7643L27.8448 66.4219L27.8302 71.71ZM27.8302 64.2988L23.227 61.6412L23.2437 56.3532L27.8448 59.0107L27.8302 64.2988Z" fill="#422369"/>
<path d="M31.5671 12.1074L1.08789 29.4349L31.3583 46.7625L61.6287 29.4349L53.5914 25.364L38.5606 34.1321L23.9473 25.364L38.9781 16.5958L31.5671 12.1074Z" fill="#8569B2" stroke="#553B89" stroke-width="0.3" stroke-miterlimit="10"/>
</g>
<defs>
<linearGradient id="paint0_linear_1074_3066" x1="73.4879" y1="46.679" x2="76.4941" y2="46.679" gradientUnits="userSpaceOnUse">
<stop stop-color="#573982"/>
<stop offset="0.9888" stop-color="#8569B2"/>
</linearGradient>
<linearGradient id="paint1_linear_1074_3066" x1="73.4879" y1="52.3365" x2="74.991" y2="52.3365" gradientUnits="userSpaceOnUse">
<stop stop-color="#573982"/>
<stop offset="0.9888" stop-color="#8569B2"/>
</linearGradient>
<linearGradient id="paint2_linear_1074_3066" x1="74.9918" y1="52.3156" x2="76.4949" y2="52.3156" gradientUnits="userSpaceOnUse">
<stop stop-color="#573982"/>
<stop offset="0.9888" stop-color="#8569B2"/>
</linearGradient>
<linearGradient id="paint3_linear_1074_3066" x1="73.4879" y1="36.4495" x2="76.4941" y2="36.4495" gradientUnits="userSpaceOnUse">
<stop stop-color="#573982"/>
<stop offset="0.9888" stop-color="#8569B2"/>
</linearGradient>
<linearGradient id="paint4_linear_1074_3066" x1="73.4879" y1="42.107" x2="74.991" y2="42.107" gradientUnits="userSpaceOnUse">
<stop stop-color="#573982"/>
<stop offset="0.9888" stop-color="#8569B2"/>
</linearGradient>
<linearGradient id="paint5_linear_1074_3066" x1="74.9918" y1="42.0861" x2="76.4949" y2="42.0861" gradientUnits="userSpaceOnUse">
<stop stop-color="#573982"/>
<stop offset="0.9888" stop-color="#8569B2"/>
</linearGradient>
<linearGradient id="paint6_linear_1074_3066" x1="73.4879" y1="26.0111" x2="76.4941" y2="26.0111" gradientUnits="userSpaceOnUse">
<stop stop-color="#573982"/>
<stop offset="0.9888" stop-color="#8569B2"/>
</linearGradient>
<linearGradient id="paint7_linear_1074_3066" x1="73.4879" y1="31.6687" x2="74.991" y2="31.6687" gradientUnits="userSpaceOnUse">
<stop stop-color="#573982"/>
<stop offset="0.9888" stop-color="#8569B2"/>
</linearGradient>
<linearGradient id="paint8_linear_1074_3066" x1="74.9918" y1="31.6478" x2="76.4949" y2="31.6478" gradientUnits="userSpaceOnUse">
<stop stop-color="#573982"/>
<stop offset="0.9888" stop-color="#8569B2"/>
</linearGradient>
<linearGradient id="paint9_linear_1074_3066" x1="46.1383" y1="32.0654" x2="49.1445" y2="32.0654" gradientUnits="userSpaceOnUse">
<stop stop-color="#573982"/>
<stop offset="0.9888" stop-color="#8569B2"/>
</linearGradient>
<linearGradient id="paint10_linear_1074_3066" x1="46.1383" y1="37.7229" x2="47.6414" y2="37.7229" gradientUnits="userSpaceOnUse">
<stop stop-color="#573982"/>
<stop offset="0.9888" stop-color="#8569B2"/>
</linearGradient>
<linearGradient id="paint11_linear_1074_3066" x1="47.6422" y1="37.702" x2="49.1453" y2="37.702" gradientUnits="userSpaceOnUse">
<stop stop-color="#573982"/>
<stop offset="0.9888" stop-color="#8569B2"/>
</linearGradient>
<linearGradient id="paint12_linear_1074_3066" x1="46.1383" y1="21.8359" x2="49.1445" y2="21.8359" gradientUnits="userSpaceOnUse">
<stop stop-color="#573982"/>
<stop offset="0.9888" stop-color="#8569B2"/>
</linearGradient>
<linearGradient id="paint13_linear_1074_3066" x1="46.1383" y1="27.4934" x2="47.6414" y2="27.4934" gradientUnits="userSpaceOnUse">
<stop stop-color="#573982"/>
<stop offset="0.9888" stop-color="#8569B2"/>
</linearGradient>
<linearGradient id="paint14_linear_1074_3066" x1="47.6422" y1="27.4725" x2="49.1453" y2="27.4725" gradientUnits="userSpaceOnUse">
<stop stop-color="#573982"/>
<stop offset="0.9888" stop-color="#8569B2"/>
</linearGradient>
<linearGradient id="paint15_linear_1074_3066" x1="46.1383" y1="11.3976" x2="49.1445" y2="11.3976" gradientUnits="userSpaceOnUse">
<stop stop-color="#573982"/>
<stop offset="0.9888" stop-color="#8569B2"/>
</linearGradient>
<linearGradient id="paint16_linear_1074_3066" x1="46.1383" y1="17.0551" x2="47.6414" y2="17.0551" gradientUnits="userSpaceOnUse">
<stop stop-color="#573982"/>
<stop offset="0.9888" stop-color="#8569B2"/>
</linearGradient>
<linearGradient id="paint17_linear_1074_3066" x1="47.6422" y1="17.0342" x2="49.1453" y2="17.0342" gradientUnits="userSpaceOnUse">
<stop stop-color="#573982"/>
<stop offset="0.9888" stop-color="#8569B2"/>
</linearGradient>
<linearGradient id="paint18_linear_1074_3066" x1="58.8746" y1="54.8208" x2="61.8808" y2="54.8208" gradientUnits="userSpaceOnUse">
<stop stop-color="#573982"/>
<stop offset="0.9888" stop-color="#8569B2"/>
</linearGradient>
<linearGradient id="paint19_linear_1074_3066" x1="58.8746" y1="60.4783" x2="60.3777" y2="60.4783" gradientUnits="userSpaceOnUse">
<stop stop-color="#573982"/>
<stop offset="0.9888" stop-color="#8569B2"/>
</linearGradient>
<linearGradient id="paint20_linear_1074_3066" x1="60.3786" y1="60.4575" x2="61.8816" y2="60.4575" gradientUnits="userSpaceOnUse">
<stop stop-color="#573982"/>
<stop offset="0.9888" stop-color="#8569B2"/>
</linearGradient>
<linearGradient id="paint21_linear_1074_3066" x1="66.8063" y1="50.228" x2="69.8124" y2="50.228" gradientUnits="userSpaceOnUse">
<stop stop-color="#573982"/>
<stop offset="0.9888" stop-color="#8569B2"/>
</linearGradient>
<linearGradient id="paint22_linear_1074_3066" x1="66.8063" y1="55.8855" x2="68.3094" y2="55.8855" gradientUnits="userSpaceOnUse">
<stop stop-color="#573982"/>
<stop offset="0.9888" stop-color="#8569B2"/>
</linearGradient>
<linearGradient id="paint23_linear_1074_3066" x1="68.3082" y1="55.8647" x2="69.8113" y2="55.8647" gradientUnits="userSpaceOnUse">
<stop stop-color="#573982"/>
<stop offset="0.9888" stop-color="#8569B2"/>
</linearGradient>
<linearGradient id="paint24_linear_1074_3066" x1="49.0621" y1="50.8543" x2="52.0683" y2="50.8543" gradientUnits="userSpaceOnUse">
<stop stop-color="#573982"/>
<stop offset="0.9888" stop-color="#8569B2"/>
</linearGradient>
<linearGradient id="paint25_linear_1074_3066" x1="49.0621" y1="56.5118" x2="50.5652" y2="56.5118" gradientUnits="userSpaceOnUse">
<stop stop-color="#573982"/>
<stop offset="0.9888" stop-color="#8569B2"/>
</linearGradient>
<linearGradient id="paint26_linear_1074_3066" x1="50.5661" y1="56.491" x2="52.0691" y2="56.491" gradientUnits="userSpaceOnUse">
<stop stop-color="#573982"/>
<stop offset="0.9888" stop-color="#8569B2"/>
</linearGradient>
<linearGradient id="paint27_linear_1074_3066" x1="58.8746" y1="46.0527" x2="61.8808" y2="46.0527" gradientUnits="userSpaceOnUse">
<stop stop-color="#573982"/>
<stop offset="0.9888" stop-color="#8569B2"/>
</linearGradient>
<linearGradient id="paint28_linear_1074_3066" x1="58.8746" y1="51.7102" x2="60.3777" y2="51.7102" gradientUnits="userSpaceOnUse">
<stop stop-color="#573982"/>
<stop offset="0.9888" stop-color="#8569B2"/>
</linearGradient>
<linearGradient id="paint29_linear_1074_3066" x1="60.3786" y1="51.6894" x2="61.8816" y2="51.6894" gradientUnits="userSpaceOnUse">
<stop stop-color="#573982"/>
<stop offset="0.9888" stop-color="#8569B2"/>
</linearGradient>
<linearGradient id="paint30_linear_1074_3066" x1="66.8063" y1="41.2511" x2="69.8124" y2="41.2511" gradientUnits="userSpaceOnUse">
<stop stop-color="#573982"/>
<stop offset="0.9888" stop-color="#8569B2"/>
</linearGradient>
<linearGradient id="paint31_linear_1074_3066" x1="66.8063" y1="46.9086" x2="68.3094" y2="46.9086" gradientUnits="userSpaceOnUse">
<stop stop-color="#573982"/>
<stop offset="0.9888" stop-color="#8569B2"/>
</linearGradient>
<linearGradient id="paint32_linear_1074_3066" x1="68.3082" y1="46.8877" x2="69.8113" y2="46.8877" gradientUnits="userSpaceOnUse">
<stop stop-color="#573982"/>
<stop offset="0.9888" stop-color="#8569B2"/>
</linearGradient>
<linearGradient id="paint33_linear_1074_3066" x1="41.7555" y1="47.3053" x2="44.7617" y2="47.3053" gradientUnits="userSpaceOnUse">
<stop stop-color="#573982"/>
<stop offset="0.9888" stop-color="#8569B2"/>
</linearGradient>
<linearGradient id="paint34_linear_1074_3066" x1="41.7555" y1="52.9628" x2="43.2586" y2="52.9628" gradientUnits="userSpaceOnUse">
<stop stop-color="#573982"/>
<stop offset="0.9888" stop-color="#8569B2"/>
</linearGradient>
<linearGradient id="paint35_linear_1074_3066" x1="43.2594" y1="52.942" x2="44.7625" y2="52.942" gradientUnits="userSpaceOnUse">
<stop stop-color="#573982"/>
<stop offset="0.9888" stop-color="#8569B2"/>
</linearGradient>
<linearGradient id="paint36_linear_1074_3066" x1="49.0621" y1="44.1738" x2="52.0683" y2="44.1738" gradientUnits="userSpaceOnUse">
<stop stop-color="#573982"/>
<stop offset="0.9888" stop-color="#8569B2"/>
</linearGradient>
<linearGradient id="paint37_linear_1074_3066" x1="49.0621" y1="49.8313" x2="50.5652" y2="49.8313" gradientUnits="userSpaceOnUse">
<stop stop-color="#573982"/>
<stop offset="0.9888" stop-color="#8569B2"/>
</linearGradient>
<linearGradient id="paint38_linear_1074_3066" x1="50.5661" y1="49.8104" x2="52.0691" y2="49.8104" gradientUnits="userSpaceOnUse">
<stop stop-color="#573982"/>
<stop offset="0.9888" stop-color="#8569B2"/>
</linearGradient>
<linearGradient id="paint39_linear_1074_3066" x1="58.8746" y1="39.3722" x2="61.8808" y2="39.3722" gradientUnits="userSpaceOnUse">
<stop stop-color="#573982"/>
<stop offset="0.9888" stop-color="#8569B2"/>
</linearGradient>
<linearGradient id="paint40_linear_1074_3066" x1="58.8746" y1="45.0297" x2="60.3777" y2="45.0297" gradientUnits="userSpaceOnUse">
<stop stop-color="#573982"/>
<stop offset="0.9888" stop-color="#8569B2"/>
</linearGradient>
<linearGradient id="paint41_linear_1074_3066" x1="60.3786" y1="45.0089" x2="61.8816" y2="45.0089" gradientUnits="userSpaceOnUse">
<stop stop-color="#573982"/>
<stop offset="0.9888" stop-color="#8569B2"/>
</linearGradient>
<linearGradient id="paint42_linear_1074_3066" x1="66.8063" y1="34.5706" x2="69.8124" y2="34.5706" gradientUnits="userSpaceOnUse">
<stop stop-color="#573982"/>
<stop offset="0.9888" stop-color="#8569B2"/>
</linearGradient>
<linearGradient id="paint43_linear_1074_3066" x1="66.8063" y1="40.2281" x2="68.3094" y2="40.2281" gradientUnits="userSpaceOnUse">
<stop stop-color="#573982"/>
<stop offset="0.9888" stop-color="#8569B2"/>
</linearGradient>
<linearGradient id="paint44_linear_1074_3066" x1="68.3082" y1="40.2073" x2="69.8113" y2="40.2073" gradientUnits="userSpaceOnUse">
<stop stop-color="#573982"/>
<stop offset="0.9888" stop-color="#8569B2"/>
</linearGradient>
<linearGradient id="paint45_linear_1074_3066" x1="1.0475" y1="29.3514" x2="4.05367" y2="29.3514" gradientUnits="userSpaceOnUse">
<stop stop-color="#573982"/>
<stop offset="0.9888" stop-color="#8569B2"/>
</linearGradient>
<linearGradient id="paint46_linear_1074_3066" x1="1.0475" y1="35.009" x2="2.55058" y2="35.009" gradientUnits="userSpaceOnUse">
<stop stop-color="#573982"/>
<stop offset="0.9888" stop-color="#8569B2"/>
</linearGradient>
<linearGradient id="paint47_linear_1074_3066" x1="2.55141" y1="34.9881" x2="4.05449" y2="34.9881" gradientUnits="userSpaceOnUse">
<stop stop-color="#573982"/>
<stop offset="0.9888" stop-color="#8569B2"/>
</linearGradient>
<linearGradient id="paint48_linear_1074_3066" x1="34.8668" y1="16.6167" x2="37.873" y2="16.6167" gradientUnits="userSpaceOnUse">
<stop stop-color="#573982"/>
<stop offset="0.9888" stop-color="#8569B2"/>
</linearGradient>
<linearGradient id="paint49_linear_1074_3066" x1="34.8668" y1="22.2743" x2="36.3699" y2="22.2743" gradientUnits="userSpaceOnUse">
<stop stop-color="#573982"/>
<stop offset="0.9888" stop-color="#8569B2"/>
</linearGradient>
<linearGradient id="paint50_linear_1074_3066" x1="36.3707" y1="22.2534" x2="37.8738" y2="22.2534" gradientUnits="userSpaceOnUse">
<stop stop-color="#573982"/>
<stop offset="0.9888" stop-color="#8569B2"/>
</linearGradient>
<linearGradient id="paint51_linear_1074_3066" x1="52.193" y1="26.0111" x2="55.1992" y2="26.0111" gradientUnits="userSpaceOnUse">
<stop stop-color="#573982"/>
<stop offset="0.9888" stop-color="#8569B2"/>
</linearGradient>
<linearGradient id="paint52_linear_1074_3066" x1="52.193" y1="31.6687" x2="53.6961" y2="31.6687" gradientUnits="userSpaceOnUse">
<stop stop-color="#573982"/>
<stop offset="0.9888" stop-color="#8569B2"/>
</linearGradient>
<linearGradient id="paint53_linear_1074_3066" x1="53.695" y1="31.6478" x2="55.198" y2="31.6478" gradientUnits="userSpaceOnUse">
<stop stop-color="#573982"/>
<stop offset="0.9888" stop-color="#8569B2"/>
</linearGradient>
<linearGradient id="paint54_linear_1074_3066" x1="59.2926" y1="20.792" x2="62.2988" y2="20.792" gradientUnits="userSpaceOnUse">
<stop stop-color="#573982"/>
<stop offset="0.9888" stop-color="#8569B2"/>
</linearGradient>
<linearGradient id="paint55_linear_1074_3066" x1="59.2926" y1="26.4496" x2="60.7957" y2="26.4496" gradientUnits="userSpaceOnUse">
<stop stop-color="#573982"/>
<stop offset="0.9888" stop-color="#8569B2"/>
</linearGradient>
<linearGradient id="paint56_linear_1074_3066" x1="60.7965" y1="26.4287" x2="62.2996" y2="26.4287" gradientUnits="userSpaceOnUse">
<stop stop-color="#573982"/>
<stop offset="0.9888" stop-color="#8569B2"/>
</linearGradient>
<linearGradient id="paint57_linear_1074_3066" x1="44.0534" y1="12.2326" x2="47.0595" y2="12.2326" gradientUnits="userSpaceOnUse">
<stop stop-color="#573982"/>
<stop offset="0.9888" stop-color="#8569B2"/>
</linearGradient>
<linearGradient id="paint58_linear_1074_3066" x1="44.0534" y1="17.8902" x2="45.5564" y2="17.8902" gradientUnits="userSpaceOnUse">
<stop stop-color="#573982"/>
<stop offset="0.9888" stop-color="#8569B2"/>
</linearGradient>
<linearGradient id="paint59_linear_1074_3066" x1="45.5573" y1="17.8693" x2="47.0603" y2="17.8693" gradientUnits="userSpaceOnUse">
<stop stop-color="#573982"/>
<stop offset="0.9888" stop-color="#8569B2"/>
</linearGradient>
<linearGradient id="paint60_linear_1074_3066" x1="38.2077" y1="8.47485" x2="41.2138" y2="8.47485" gradientUnits="userSpaceOnUse">
<stop stop-color="#573982"/>
<stop offset="0.9888" stop-color="#8569B2"/>
</linearGradient>
<linearGradient id="paint61_linear_1074_3066" x1="38.2077" y1="14.1324" x2="39.7107" y2="14.1324" gradientUnits="userSpaceOnUse">
<stop stop-color="#573982"/>
<stop offset="0.9888" stop-color="#8569B2"/>
</linearGradient>
<linearGradient id="paint62_linear_1074_3066" x1="39.7116" y1="14.1115" x2="41.2146" y2="14.1115" gradientUnits="userSpaceOnUse">
<stop stop-color="#573982"/>
<stop offset="0.9888" stop-color="#8569B2"/>
</linearGradient>
<linearGradient id="paint63_linear_1074_3066" x1="30.2731" y1="13.0677" x2="33.2793" y2="13.0677" gradientUnits="userSpaceOnUse">
<stop stop-color="#573982"/>
<stop offset="0.9888" stop-color="#8569B2"/>
</linearGradient>
<linearGradient id="paint64_linear_1074_3066" x1="30.2731" y1="18.7252" x2="31.7762" y2="18.7252" gradientUnits="userSpaceOnUse">
<stop stop-color="#573982"/>
<stop offset="0.9888" stop-color="#8569B2"/>
</linearGradient>
<linearGradient id="paint65_linear_1074_3066" x1="31.775" y1="18.7044" x2="33.2781" y2="18.7044" gradientUnits="userSpaceOnUse">
<stop stop-color="#573982"/>
<stop offset="0.9888" stop-color="#8569B2"/>
</linearGradient>
<linearGradient id="paint66_linear_1074_3066" x1="6.89223" y1="26.0112" x2="9.89839" y2="26.0112" gradientUnits="userSpaceOnUse">
<stop stop-color="#573982"/>
<stop offset="0.9888" stop-color="#8569B2"/>
</linearGradient>
<linearGradient id="paint67_linear_1074_3066" x1="6.89223" y1="31.6687" x2="8.39531" y2="31.6687" gradientUnits="userSpaceOnUse">
<stop stop-color="#573982"/>
<stop offset="0.9888" stop-color="#8569B2"/>
</linearGradient>
<linearGradient id="paint68_linear_1074_3066" x1="8.39613" y1="31.6478" x2="9.89922" y2="31.6478" gradientUnits="userSpaceOnUse">
<stop stop-color="#573982"/>
<stop offset="0.9888" stop-color="#8569B2"/>
</linearGradient>
<linearGradient id="paint69_linear_1074_3066" x1="29.4391" y1="45.6351" x2="32.4453" y2="45.6351" gradientUnits="userSpaceOnUse">
<stop stop-color="#573982"/>
<stop offset="0.9888" stop-color="#8569B2"/>
</linearGradient>
<linearGradient id="paint70_linear_1074_3066" x1="29.4391" y1="51.2927" x2="30.9422" y2="51.2927" gradientUnits="userSpaceOnUse">
<stop stop-color="#573982"/>
<stop offset="0.9888" stop-color="#8569B2"/>
</linearGradient>
<linearGradient id="paint71_linear_1074_3066" x1="30.943" y1="51.2718" x2="32.4461" y2="51.2718" gradientUnits="userSpaceOnUse">
<stop stop-color="#573982"/>
<stop offset="0.9888" stop-color="#8569B2"/>
</linearGradient>
<linearGradient id="paint72_linear_1074_3066" x1="9.1891" y1="33.9443" x2="12.1953" y2="33.9443" gradientUnits="userSpaceOnUse">
<stop stop-color="#573982"/>
<stop offset="0.9888" stop-color="#8569B2"/>
</linearGradient>
<linearGradient id="paint73_linear_1074_3066" x1="9.1891" y1="39.6018" x2="10.6922" y2="39.6018" gradientUnits="userSpaceOnUse">
<stop stop-color="#573982"/>
<stop offset="0.9888" stop-color="#8569B2"/>
</linearGradient>
<linearGradient id="paint74_linear_1074_3066" x1="10.693" y1="39.581" x2="12.1961" y2="39.581" gradientUnits="userSpaceOnUse">
<stop stop-color="#573982"/>
<stop offset="0.9888" stop-color="#8569B2"/>
</linearGradient>
<linearGradient id="paint75_linear_1074_3066" x1="21.7145" y1="41.0423" x2="24.7207" y2="41.0423" gradientUnits="userSpaceOnUse">
<stop stop-color="#573982"/>
<stop offset="0.9888" stop-color="#8569B2"/>
</linearGradient>
<linearGradient id="paint76_linear_1074_3066" x1="21.7145" y1="46.6998" x2="23.2176" y2="46.6998" gradientUnits="userSpaceOnUse">
<stop stop-color="#573982"/>
<stop offset="0.9888" stop-color="#8569B2"/>
</linearGradient>
<linearGradient id="paint77_linear_1074_3066" x1="23.2184" y1="46.679" x2="24.7215" y2="46.679" gradientUnits="userSpaceOnUse">
<stop stop-color="#573982"/>
<stop offset="0.9888" stop-color="#8569B2"/>
</linearGradient>
<linearGradient id="paint78_linear_1074_3066" x1="34.8668" y1="42.2949" x2="37.873" y2="42.2949" gradientUnits="userSpaceOnUse">
<stop stop-color="#573982"/>
<stop offset="0.9888" stop-color="#8569B2"/>
</linearGradient>
<linearGradient id="paint79_linear_1074_3066" x1="34.8668" y1="47.9524" x2="36.3699" y2="47.9524" gradientUnits="userSpaceOnUse">
<stop stop-color="#573982"/>
<stop offset="0.9888" stop-color="#8569B2"/>
</linearGradient>
<linearGradient id="paint80_linear_1074_3066" x1="36.3707" y1="47.9315" x2="37.8738" y2="47.9315" gradientUnits="userSpaceOnUse">
<stop stop-color="#573982"/>
<stop offset="0.9888" stop-color="#8569B2"/>
</linearGradient>
<linearGradient id="paint81_linear_1074_3066" x1="41.7555" y1="38.5371" x2="44.7617" y2="38.5371" gradientUnits="userSpaceOnUse">
<stop stop-color="#573982"/>
<stop offset="0.9888" stop-color="#8569B2"/>
</linearGradient>
<linearGradient id="paint82_linear_1074_3066" x1="41.7555" y1="44.1946" x2="43.2586" y2="44.1946" gradientUnits="userSpaceOnUse">
<stop stop-color="#573982"/>
<stop offset="0.9888" stop-color="#8569B2"/>
</linearGradient>
<linearGradient id="paint83_linear_1074_3066" x1="43.2594" y1="44.1738" x2="44.7625" y2="44.1738" gradientUnits="userSpaceOnUse">
<stop stop-color="#573982"/>
<stop offset="0.9888" stop-color="#8569B2"/>
</linearGradient>
<linearGradient id="paint84_linear_1074_3066" x1="49.0621" y1="34.153" x2="52.0683" y2="34.153" gradientUnits="userSpaceOnUse">
<stop stop-color="#573982"/>
<stop offset="0.9888" stop-color="#8569B2"/>
</linearGradient>
<linearGradient id="paint85_linear_1074_3066" x1="49.0621" y1="39.8106" x2="50.5652" y2="39.8106" gradientUnits="userSpaceOnUse">
<stop stop-color="#573982"/>
<stop offset="0.9888" stop-color="#8569B2"/>
</linearGradient>
<linearGradient id="paint86_linear_1074_3066" x1="50.5661" y1="39.7897" x2="52.0691" y2="39.7897" gradientUnits="userSpaceOnUse">
<stop stop-color="#573982"/>
<stop offset="0.9888" stop-color="#8569B2"/>
</linearGradient>
<linearGradient id="paint87_linear_1074_3066" x1="58.8746" y1="29.1427" x2="61.8808" y2="29.1427" gradientUnits="userSpaceOnUse">
<stop stop-color="#573982"/>
<stop offset="0.9888" stop-color="#8569B2"/>
</linearGradient>
<linearGradient id="paint88_linear_1074_3066" x1="58.8746" y1="34.8002" x2="60.3777" y2="34.8002" gradientUnits="userSpaceOnUse">
<stop stop-color="#573982"/>
<stop offset="0.9888" stop-color="#8569B2"/>
</linearGradient>
<linearGradient id="paint89_linear_1074_3066" x1="60.3786" y1="34.7793" x2="61.8816" y2="34.7793" gradientUnits="userSpaceOnUse">
<stop stop-color="#573982"/>
<stop offset="0.9888" stop-color="#8569B2"/>
</linearGradient>
<linearGradient id="paint90_linear_1074_3066" x1="66.8063" y1="24.1323" x2="69.8124" y2="24.1323" gradientUnits="userSpaceOnUse">
<stop stop-color="#573982"/>
<stop offset="0.9888" stop-color="#8569B2"/>
</linearGradient>
<linearGradient id="paint91_linear_1074_3066" x1="66.8063" y1="29.7898" x2="68.3094" y2="29.7898" gradientUnits="userSpaceOnUse">
<stop stop-color="#573982"/>
<stop offset="0.9888" stop-color="#8569B2"/>
</linearGradient>
<linearGradient id="paint92_linear_1074_3066" x1="68.3082" y1="29.7689" x2="69.8113" y2="29.7689" gradientUnits="userSpaceOnUse">
<stop stop-color="#573982"/>
<stop offset="0.9888" stop-color="#8569B2"/>
</linearGradient>
<linearGradient id="paint93_linear_1074_3066" x1="73.4879" y1="15.7816" x2="76.4941" y2="15.7816" gradientUnits="userSpaceOnUse">
<stop stop-color="#573982"/>
<stop offset="0.9888" stop-color="#8569B2"/>
</linearGradient>
<linearGradient id="paint94_linear_1074_3066" x1="73.4879" y1="21.4392" x2="74.991" y2="21.4392" gradientUnits="userSpaceOnUse">
<stop stop-color="#573982"/>
<stop offset="0.9888" stop-color="#8569B2"/>
</linearGradient>
<linearGradient id="paint95_linear_1074_3066" x1="74.9918" y1="21.4183" x2="76.4949" y2="21.4183" gradientUnits="userSpaceOnUse">
<stop stop-color="#573982"/>
<stop offset="0.9888" stop-color="#8569B2"/>
</linearGradient>
<linearGradient id="paint96_linear_1074_3066" x1="46.1383" y1="1.37682" x2="49.1445" y2="1.37682" gradientUnits="userSpaceOnUse">
<stop stop-color="#573982"/>
<stop offset="0.9888" stop-color="#8569B2"/>
</linearGradient>
<linearGradient id="paint97_linear_1074_3066" x1="46.1383" y1="7.03437" x2="47.6414" y2="7.03437" gradientUnits="userSpaceOnUse">
<stop stop-color="#573982"/>
<stop offset="0.9888" stop-color="#8569B2"/>
</linearGradient>
<linearGradient id="paint98_linear_1074_3066" x1="47.6422" y1="7.01349" x2="49.1453" y2="7.01349" gradientUnits="userSpaceOnUse">
<stop stop-color="#573982"/>
<stop offset="0.9888" stop-color="#8569B2"/>
</linearGradient>
<clipPath id="clip0_1074_3066">
<rect width="76.2" height="82.5" fill="white" transform="translate(0.5 0.5)"/>
</clipPath>
</defs>
</svg>
